<svg id="SVGDoc" width="22" height="22" xmlns="http://www.w3.org/2000/svg" version="1.1" xmlns:xlink="http://www.w3.org/1999/xlink" xmlns:avocode="https://avocode.com/" viewBox="0 0 22 22"><defs><path d="M1033.88812,3563.9201v3c0.00229,0.56314 -0.23295,1.10116 -0.64792,1.48186c-0.41497,0.38071 -0.97121,0.56883 -1.53208,0.51814c-3.07716,-0.33436 -6.033,-1.38586 -8.63,-3.07c-2.41617,-1.53534 -4.46466,-3.58383 -6,-6c-1.69002,-2.6088 -2.74175,-5.57901 -3.07,-8.67c-0.05052,-0.55913 0.13628,-1.11375 0.51477,-1.52838c0.37849,-0.41463 0.91383,-0.65109 1.47523,-0.65162h3c1.00387,-0.00988 1.8595,0.72597 2,1.72c0.12663,0.96006 0.36145,1.90273 0.7,2.81c0.27474,0.73087 0.09902,1.5548 -0.45,2.11l-1.27,1.27c1.42356,2.50354 3.49646,4.57644 6,6l1.27,-1.27c0.5552,-0.54902 1.37913,-0.72474 2.11,-0.45c0.90728,0.33855 1.84994,0.57338 2.81,0.7c1.00557,0.14186 1.74519,1.01479 1.72,2.03z" id="Path-0"/></defs><desc>Generated with Avocode.</desc><g transform="matrix(1,0,0,1,-1013,-3548)"><g><title>Path</title><use xlink:href="#Path-0" fill-opacity="0" fill="#ffffff" stroke-linejoin="round" stroke-linecap="round" stroke-opacity="1" stroke="#9f97e5" stroke-miterlimit="50" stroke-width="2"/></g></g></svg>