<svg id="SVGDoc" width="361" height="209" xmlns="http://www.w3.org/2000/svg" version="1.1" xmlns:xlink="http://www.w3.org/1999/xlink" xmlns:avocode="https://avocode.com/" viewBox="0 0 361 209"><defs><path d="M858,1360c0,-5.52285 4.47715,-10 10,-10h192c5.52285,0 10,4.47715 10,10v114c0,5.52285 -4.47715,10 -10,10h-192c-5.52285,0 -10,-4.47715 -10,-10z" id="Path-0"/><path d="M1086,1372c0,-2.76142 2.23858,-5 5,-5v0c2.76142,0 5,2.23858 5,5v0c0,2.76142 -2.23858,5 -5,5v0c-2.76142,0 -5,-2.23858 -5,-5z" id="Path-1"/><path d="M990,1372c0,-2.76142 2.23858,-5 5,-5h55c2.76142,0 5,2.23858 5,5v0c0,2.76142 -2.23858,5 -5,5h-55c-2.76142,0 -5,-2.23858 -5,-5z" id="Path-2"/><path d="M1051,1406.5c0,-3.03757 2.46243,-5.5 5.5,-5.5h31c3.03757,0 5.5,2.46243 5.5,5.5v0c0,3.03757 -2.46243,5.5 -5.5,5.5h-31c-3.03757,0 -5.5,-2.46243 -5.5,-5.5z" id="Path-3"/><path d="M982,1406.5c0,-3.03757 2.46243,-5.5 5.5,-5.5h21c3.03757,0 5.5,2.46243 5.5,5.5v0c0,3.03757 -2.46243,5.5 -5.5,5.5h-21c-3.03757,0 -5.5,-2.46243 -5.5,-5.5z" id="Path-4"/><path d="M990,1429.5c0,-3.03757 2.46243,-5.5 5.5,-5.5h27c3.03757,0 5.5,2.46243 5.5,5.5v0c0,3.03757 -2.46243,5.5 -5.5,5.5h-27c-3.03757,0 -5.5,-2.46243 -5.5,-5.5z" id="Path-5"/><path d="M872,1454.5c0,-3.03757 2.46243,-5.5 5.5,-5.5h76c3.03757,0 5.5,2.46243 5.5,5.5v0c0,3.03757 -2.46243,5.5 -5.5,5.5h-76c-3.03757,0 -5.5,-2.46243 -5.5,-5.5z" id="Path-6"/><path d="M736,1285c0,-5.52285 4.47715,-10 10,-10h248c5.52285,0 10,4.47715 10,10v149c0,5.52285 -4.47715,10 -10,10h-248c-5.52285,0 -10,-4.47715 -10,-10z" id="Path-7"/><path d="M780,1449.11687c0,0 28.26306,-79.10103 58.14059,-41.01534c29.87753,38.08569 76.82037,1.46469 89.53416,-18.55462c12.7138,-20.01957 48.89887,-52.7342 84.59501,0c35.6964,52.73393 66.5026,10.2539 82.63924,-14.16001" id="Path-8"/><path d="M761.24,1319.08808l287.5161,-1.08808" id="Path-9"/><path d="M761.24,1342.29808l287.5161,-1.08808" id="Path-10"/><path d="M761.24,1365.50808l287.5161,-1.08808" id="Path-11"/><path d="M761.24,1388.72808l287.5161,-1.08808" id="Path-12"/><path d="M761.24,1411.93808l287.5161,-1.08808" id="Path-13"/><path d="M761.24,1435.14808l287.5161,-1.08808" id="Path-14"/><path d="M761.24,1457.99808l287.5161,-1.08808" id="Path-15"/><path d="M743,1287.5c0,-2.48528 1.94756,-4.5 4.35,-4.5c2.40244,0 4.35,2.01472 4.35,4.5c0,2.48528 -1.94756,4.5 -4.35,4.5c-2.40244,0 -4.35,-2.01472 -4.35,-4.5z" id="Path-16"/><path d="M756.53,1287.5c0,-2.48528 1.94756,-4.5 4.35,-4.5c2.40244,0 4.35,2.01472 4.35,4.5c0,2.48528 -1.94756,4.5 -4.35,4.5c-2.40244,0 -4.35,-2.01472 -4.35,-4.5z" id="Path-17"/><path d="M770.06,1287.5c0,-2.48528 1.94756,-4.5 4.35,-4.5c2.40244,0 4.35,2.01472 4.35,4.5c0,2.48528 -1.94756,4.5 -4.35,4.5c-2.40244,0 -4.35,-2.01472 -4.35,-4.5z" id="Path-18"/><path d="M780,1429.11687c0,0 28.26306,-79.10103 58.14059,-41.01534c29.87753,38.08569 76.82037,1.46469 89.53416,-18.55462c12.7138,-20.01957 48.89887,-52.7342 84.59501,0c35.6964,52.73393 66.5026,10.2539 82.63924,-14.16001" id="Path-19"/><path d="M900,1390.515c0,-3.59814 2.92806,-6.515 6.54,-6.515c3.61194,0 6.54,2.91686 6.54,6.515c0,3.59814 -2.92806,6.515 -6.54,6.515c-3.61194,0 -6.54,-2.91686 -6.54,-6.515z" id="Path-20"/><path d="M869,1338c0,-2.76142 2.23858,-5 5,-5h64.8c2.76142,0 5,2.23858 5,5v34.08c0,2.76142 -2.23858,5 -5,5h-69.8v0z" id="Path-21"/><path d="M879,1346.545c0,-1.40556 1.13944,-2.545 2.545,-2.545h33.16c1.40556,0 2.545,1.13944 2.545,2.545v0c0,1.40556 -1.13944,2.545 -2.545,2.545h-33.16c-1.40556,0 -2.545,-1.13944 -2.545,-2.545z" id="Path-22"/><path d="M880,1359.545c0,-1.40556 1.13944,-2.545 2.545,-2.545h17.86c1.40556,0 2.545,1.13944 2.545,2.545v0c0,1.40556 -1.13944,2.545 -2.545,2.545h-17.86c-1.40556,0 -2.545,-1.13944 -2.545,-2.545z" id="Path-23"/><path d="M923,1346.545c0,-1.40556 1.13944,-2.545 2.545,-2.545h1.71c1.40556,0 2.545,1.13944 2.545,2.545v0c0,1.40556 -1.13944,2.545 -2.545,2.545h-1.71c-1.40556,0 -2.545,-1.13944 -2.545,-2.545z" id="Path-24"/><clipPath id="clip-48609BF6-DC5E-430E-97B6-E9B1F71DB332"><use xlink:href="#Path-7" /></clipPath></defs><desc>Generated with Avocode.</desc><g transform="matrix(1,0,0,1,-736,-1275)"><g><title>Img-1</title><g><title>Img-1</title><g><title>Group 5</title><g><title>Group 9</title><g><title>Group 10</title><g><title>Bg</title><use xlink:href="#Path-0" fill="#ceedfa" fill-opacity="1"/></g><g><title>Rectangle</title><use xlink:href="#Path-1" fill="#93cce3" fill-opacity="1"/></g><g><title>Rectangle</title><use xlink:href="#Path-2" fill="#93cce3" fill-opacity="1"/></g><g><title>Rectangle</title><use xlink:href="#Path-3" fill="#93cce3" fill-opacity="1"/></g><g><title>Rectangle</title><use xlink:href="#Path-4" fill="#93cce3" fill-opacity="1"/></g><g><title>Rectangle</title><use xlink:href="#Path-5" fill="#93cce3" fill-opacity="1"/></g><g><title>Rectangle</title><use xlink:href="#Path-6" fill="#93cce3" fill-opacity="1"/></g></g></g><g><title>Bg</title><use xlink:href="#Path-7" fill="#ffffff" fill-opacity="1"/></g><g opacity="0.1" clip-path="url(#clip-48609BF6-DC5E-430E-97B6-E9B1F71DB332)"><title>Stroke 1</title><use xlink:href="#Path-8" fill-opacity="0" fill="#ffffff" stroke-linejoin="miter" stroke-linecap="round" stroke-opacity="1" stroke="#3f3379" stroke-miterlimit="50" stroke-width="4"/></g><g clip-path="url(#clip-48609BF6-DC5E-430E-97B6-E9B1F71DB332)"><title>Lines</title><g opacity="0.06"><title>Line 3</title><use xlink:href="#Path-9" fill-opacity="0" fill="#ffffff" stroke-dasharray="4 6" stroke-linejoin="miter" stroke-linecap="square" stroke-opacity="1" stroke="#3f3379" stroke-miterlimit="50" stroke-width="2"/></g><g opacity="0.06"><title>Line 3 Copy</title><use xlink:href="#Path-10" fill-opacity="0" fill="#ffffff" stroke-dasharray="4 6" stroke-linejoin="miter" stroke-linecap="square" stroke-opacity="1" stroke="#3f3379" stroke-miterlimit="50" stroke-width="2"/></g><g opacity="0.06"><title>Line 3 Copy 2</title><use xlink:href="#Path-11" fill-opacity="0" fill="#ffffff" stroke-dasharray="4 6" stroke-linejoin="miter" stroke-linecap="square" stroke-opacity="1" stroke="#3f3379" stroke-miterlimit="50" stroke-width="2"/></g><g opacity="0.06"><title>Line 3 Copy 3</title><use xlink:href="#Path-12" fill-opacity="0" fill="#ffffff" stroke-dasharray="4 6" stroke-linejoin="miter" stroke-linecap="square" stroke-opacity="1" stroke="#3f3379" stroke-miterlimit="50" stroke-width="2"/></g><g opacity="0.06"><title>Line 3 Copy 4</title><use xlink:href="#Path-13" fill-opacity="0" fill="#ffffff" stroke-dasharray="4 6" stroke-linejoin="miter" stroke-linecap="square" stroke-opacity="1" stroke="#3f3379" stroke-miterlimit="50" stroke-width="2"/></g><g opacity="0.06"><title>Line 3 Copy 5</title><use xlink:href="#Path-14" fill-opacity="0" fill="#ffffff" stroke-dasharray="4 6" stroke-linejoin="miter" stroke-linecap="square" stroke-opacity="1" stroke="#3f3379" stroke-miterlimit="50" stroke-width="2"/></g><g opacity="0.06"><title>Line 3 Copy 6</title><use xlink:href="#Path-15" fill-opacity="0" fill="#ffffff" stroke-dasharray="4 6" stroke-linejoin="miter" stroke-linecap="square" stroke-opacity="1" stroke="#3f3379" stroke-miterlimit="50" stroke-width="2"/></g></g><g clip-path="url(#clip-48609BF6-DC5E-430E-97B6-E9B1F71DB332)"><title>Dots</title><g><title>Oval</title><use xlink:href="#Path-16" fill="#412897" fill-opacity="1"/></g><g opacity="0.7"><title>Oval Copy</title><use xlink:href="#Path-17" fill="#412897" fill-opacity="1"/></g><g opacity="0.3"><title>Oval Copy 2</title><use xlink:href="#Path-18" fill="#412897" fill-opacity="1"/></g></g></g></g><g><title>Group 3</title><g><title>Stroke 1</title><use xlink:href="#Path-19" fill-opacity="0" fill="#ffffff" stroke-linejoin="miter" stroke-linecap="round" stroke-opacity="1" stroke="#3f3379" stroke-miterlimit="50" stroke-width="4"/></g><g><title>Oval Copy 5</title><use xlink:href="#Path-20" fill="#ffffff" fill-opacity="1"/><use xlink:href="#Path-20" fill-opacity="0" fill="#ffffff" stroke-linejoin="miter" stroke-linecap="butt" stroke-opacity="1" stroke="#3f3379" stroke-miterlimit="50" stroke-width="3"/></g><g><title>Group 6</title><g><title>Rectangle</title><use xlink:href="#Path-21" fill="#412897" fill-opacity="1"/></g><g><title>Rectangle</title><use xlink:href="#Path-22" fill="#7c63ce" fill-opacity="1"/></g><g><title>Rectangle Copy 4</title><use xlink:href="#Path-23" fill="#7c63ce" fill-opacity="1"/></g><g><title>Rectangle Copy 3</title><use xlink:href="#Path-24" fill="#7c63ce" fill-opacity="1"/></g></g></g></g></g></svg>