<?xml version="1.0" encoding="utf-8"?>
<!-- Generator: Adobe Illustrator 19.2.0, SVG Export Plug-In . SVG Version: 6.00 Build 0)  -->
<svg version="1.1" id="Layer_1" xmlns="http://www.w3.org/2000/svg" xmlns:xlink="http://www.w3.org/1999/xlink" x="0px" y="0px"
	 viewBox="0 0 986 746" style="enable-background:new 0 0 986 746;" xml:space="preserve">
<style type="text/css">
	.st0{fill:#FFFFFF;}
	.st1{fill:#282F35;stroke:#FFFFFF;stroke-miterlimit:10;}
	.st2{fill:#E5E5E5;}
	.st3{fill:#282F35;}
	.st4{fill:none;}
	.st5{fill:url(#SVGID_1_);}
	.st6{fill:url(#SVGID_2_);}
</style>
<g>
	<g>
		<path class="st0" d="M344.1,234.1"/>
		<path class="st0" d="M744.9,337.7"/>
		<path class="st0" d="M744.9,337.7l43.2,11.2c18.3,4.7,19.8,1.7,28.2-11.5l89.9-153.6c1.2-2,1.8-4.2,1.7-6.5
			c-0.5-6.9-7.2-10.2-15.5-12.4L293.6,10.1c-8.4-2.2-15.8-2.5-19.6,3.3c-1.3,2-1.8,4.3-1.6,6.6l8.9,177.1
			c0.3,15.2,1.4,21.1,21.7,26.3l41.2,10.6"/>
	</g>
	<g>
		<path class="st0" d="M792,352.7l-47.8-12.3l-4.5,17.3L339,254.1l4.5-17.3l-47.8-12.3c-10.8-2.8-21.7,3.7-24.5,14.4L187,564.8
			c-2.8,10.8,3.7,21.7,14.4,24.5l496.3,128.2c10.8,2.8,21.7-3.7,24.5-14.4l84.2-325.9C809.2,366.4,802.7,355.5,792,352.7z"/>
		<polyline class="st0" points="343.4,236.8 339,254.1 739.7,357.6 744.2,340.3 		"/>
	</g>
	<g>
		<path class="st1" d="M343.4,236.8"/>
		<path class="st1" d="M744.2,340.3"/>
		<path class="st1" d="M744.2,340.3l43.2,11.2c18.3,4.7,19.8,1.7,28.2-11.5l89.9-153.6c1.2-2,1.8-4.2,1.7-6.5
			c-0.5-6.9-7.2-10.2-15.5-12.4l-186.8-48.3L292.9,12.8c-8.4-2.2-15.8-2.5-19.6,3.3c-1.3,2-1.8,4.3-1.6,6.6l8.9,177.1
			c0.3,15.2,1.4,21.1,21.7,26.3l41.2,10.6"/>
	</g>
	<path class="st2" d="M522.4,647.8L389,613.4c-5.8-1.5-9.3-7.4-7.8-13.2l23.7-91.7c1.5-5.8,7.4-9.3,13.2-7.8l133.4,34.5
		c5.8,1.5,9.3,7.4,7.8,13.2L535.6,640C534.1,645.8,528.2,649.3,522.4,647.8z"/>
	
		<rect x="335.4" y="282" transform="matrix(0.9682 0.2502 -0.2502 0.9682 90.8197 -126.3332)" class="st3" width="413.9" height="24.3"/>
	<g>
		<path class="st4" d="M343.4,236.8"/>
		<path class="st4" d="M744.2,340.3"/>
	</g>
	
		<rect x="255.2" y="267.7" transform="matrix(0.9682 0.2502 -0.2502 0.9682 95.4308 -58.3254)" class="st2" width="44" height="157.1"/>
	
		<rect x="727.5" y="389.7" transform="matrix(0.9682 0.2502 -0.2502 0.9682 140.9781 -172.6054)" class="st2" width="44" height="157.1"/>
	<path class="st2" d="M695.1,546.4L286.2,440.7c-3.9-1-6.3-5-5.3-8.9l41.4-160.2c1-3.9,5-6.3,8.9-5.3L740.2,372c3.9,1,6.3,5,5.3,8.9
		l-41.4,160.2C703,545,699,547.4,695.1,546.4z"/>
	<path class="st2" d="M790.2,362.2l2.7,0.7c3.1,0.8,4.9,3.9,4.1,7l-0.7,2.7c-0.8,3.1-3.9,4.9-7,4.1l-2.7-0.7c-3.1-0.8-4.9-3.9-4.1-7
		l0.7-2.7C784,363.2,787.1,361.4,790.2,362.2z"/>
	<path class="st3" d="M349.5,297.8l-15.6-4c-2.7-0.7-4.3-3.4-3.6-6.1l1.2-4.5c0.7-2.7,3.4-4.3,6.1-3.6l15.6,4
		c2.7,0.7,4.3,3.4,3.6,6.1l-1.2,4.5C354.9,296.9,352.2,298.5,349.5,297.8z"/>
	<path class="st3" d="M341.3,324.5l-14.4-3.7c-2.7-0.7-4.3-3.4-3.6-6.1l3.5-13.4c0.7-2.7,3.4-4.3,6.1-3.6l14.4,3.7
		c2.7,0.7,4.3,3.4,3.6,6.1l-3.5,13.4C346.7,323.6,344,325.2,341.3,324.5z"/>
	<path class="st3" d="M369,331.6l-14.4-3.7c-2.7-0.7-4.3-3.4-3.6-6.1l3.5-13.4c0.7-2.7,3.4-4.3,6.1-3.6l14.4,3.7
		c2.7,0.7,4.3,3.4,3.6,6.1l-3.5,13.4C374.4,330.7,371.7,332.3,369,331.6z"/>
	<path class="st3" d="M375.9,361.8l-14.4-3.7c-2.7-0.7-4.3-3.4-3.6-6.1l3.5-13.4c0.7-2.7,3.4-4.3,6.1-3.6l14.4,3.7
		c2.7,0.7,4.3,3.4,3.6,6.1l-3.5,13.4C381.3,360.9,378.6,362.5,375.9,361.8z"/>
	<path class="st3" d="M348.3,354.7l-28.2-7.3c-2.7-0.7-4.3-3.4-3.6-6.1l3.5-13.4c0.7-2.7,3.4-4.3,6.1-3.6l28.2,7.3
		c2.7,0.7,4.3,3.4,3.6,6.1l-3.5,13.4C353.7,353.8,350.9,355.4,348.3,354.7z"/>
	<path class="st3" d="M348.1,383.5l-35.1-9.1c-2.7-0.7-4.3-3.4-3.6-6.1l3.5-13.4c0.7-2.7,3.4-4.3,6.1-3.6l35.1,9.1
		c2.7,0.7,4.3,3.4,3.6,6.1l-3.5,13.4C353.5,382.6,350.8,384.2,348.1,383.5z"/>
	<path class="st3" d="M355.5,414.3L306,401.6c-2.7-0.7-4.3-3.4-3.6-6.1l3.5-13.4c0.7-2.7,3.4-4.3,6.1-3.6l49.5,12.8
		c2.7,0.7,4.3,3.4,3.6,6.1l-3.5,13.4C360.9,413.4,358.2,415,355.5,414.3z"/>
	<path class="st3" d="M312.2,436.5l-14.3-3.7c-2.7-0.7-4.3-3.4-3.6-6.1l4.5-17.3c0.7-2.7,3.4-4.3,6.1-3.6l14.3,3.7
		c2.7,0.7,4.3,3.4,3.6,6.1l-4.5,17.3C317.6,435.5,314.9,437.1,312.2,436.5z"/>
	<path class="st3" d="M339.9,443.6l-14.3-3.7c-2.7-0.7-4.3-3.4-3.6-6.1l4.5-17.3c0.7-2.7,3.4-4.3,6.1-3.6l14.3,3.7
		c2.7,0.7,4.3,3.4,3.6,6.1L346,440C345.3,442.7,342.6,444.3,339.9,443.6z"/>
	<path class="st3" d="M368,450.9l-14.3-3.7c-2.7-0.7-4.3-3.4-3.6-6.1l4.5-17.3c0.7-2.7,3.4-4.3,6.1-3.6l14.3,3.7
		c2.7,0.7,4.3,3.4,3.6,6.1l-4.5,17.3C373.4,449.9,370.6,451.5,368,450.9z"/>
	<path class="st3" d="M605,512.1l-14.3-3.7c-2.7-0.7-4.3-3.4-3.6-6.1l4.5-17.3c0.7-2.7,3.4-4.3,6.1-3.6l14.3,3.7
		c2.7,0.7,4.3,3.4,3.6,6.1l-4.5,17.3C610.4,511.2,607.7,512.8,605,512.1z"/>
	<path class="st3" d="M633.7,519.5l-14.3-3.7c-2.7-0.7-4.3-3.4-3.6-6.1l0.9-3.5c0.7-2.7,3.4-4.3,6.1-3.6l14.3,3.7
		c2.7,0.7,4.3,3.4,3.6,6.1l-0.9,3.5C639.1,518.6,636.4,520.2,633.7,519.5z"/>
	<path class="st3" d="M688.7,533.7l-14.3-3.7c-2.7-0.7-4.3-3.4-3.6-6.1l0.9-3.5c0.7-2.7,3.4-4.3,6.1-3.6l14.3,3.7
		c2.7,0.7,4.3,3.4,3.6,6.1l-0.9,3.5C694.1,532.8,691.4,534.4,688.7,533.7z"/>
	<path class="st3" d="M669.8,513.4l-23.9-6.2l2.2-8.3c0.7-2.7,3.4-4.3,6.1-3.6l14.3,3.7c2.7,0.7,4.3,3.4,3.6,6.1L669.8,513.4z"/>
	<path class="st3" d="M645.5,508.5l23.9,6.2l-2.2,8.3c-0.7,2.7-3.4,4.3-6.1,3.6l-14.3-3.7c-2.7-0.7-4.3-3.4-3.6-6.1L645.5,508.5z"/>
	<path class="st3" d="M403.4,460l-21.7-5.6c-2.7-0.7-4.3-3.4-3.6-6.1l4.5-17.3c0.7-2.7,3.4-4.3,6.1-3.6l21.7,5.6
		c2.7,0.7,4.3,3.4,3.6,6.1l-4.5,17.3C408.8,459.1,406.1,460.7,403.4,460z"/>
	<path class="st3" d="M542.8,496l-126.5-32.7c-2.7-0.7-4.3-3.4-3.6-6.1l4.5-17.3c0.7-2.7,3.4-4.3,6.1-3.6L549.8,469
		c2.7,0.7,4.3,3.4,3.6,6.1l-4.5,17.3C548.3,495.1,545.5,496.7,542.8,496z"/>
	<path class="st3" d="M577.9,504.4l-21.7-5.6c-2.7-0.7-4.3-3.4-3.6-6.1l4.5-17.3c0.7-2.7,3.4-4.3,6.1-3.6l21.7,5.6
		c2.7,0.7,4.3,3.4,3.6,6.1l-4.5,17.3C583.3,503.5,580.6,505.1,577.9,504.4z"/>
	<path class="st3" d="M376.1,390.8l-14.4-3.7c-2.7-0.7-4.3-3.4-3.6-6.1l3.5-13.4c0.7-2.7,3.4-4.3,6.1-3.6l14.4,3.7
		c2.7,0.7,4.3,3.4,3.6,6.1l-3.5,13.4C381.5,389.9,378.8,391.5,376.1,390.8z"/>
	<path class="st3" d="M383.1,421.5l-14.4-3.7c-2.7-0.7-4.3-3.4-3.6-6.1l3.5-13.4c0.7-2.7,3.4-4.3,6.1-3.6l14.4,3.7
		c2.7,0.7,4.3,3.4,3.6,6.1l-3.5,13.4C388.5,420.6,385.8,422.2,383.1,421.5z"/>
	<path class="st3" d="M410.7,428.6l-14.4-3.7c-2.7-0.7-4.3-3.4-3.6-6.1l3.5-13.4c0.7-2.7,3.4-4.3,6.1-3.6l14.4,3.7
		c2.7,0.7,4.3,3.4,3.6,6.1l-3.5,13.4C416.1,427.7,413.4,429.3,410.7,428.6z"/>
	<path class="st3" d="M438.8,435.9l-14.4-3.7c-2.7-0.7-4.3-3.4-3.6-6.1l3.5-13.4c0.7-2.7,3.4-4.3,6.1-3.6l14.4,3.7
		c2.7,0.7,4.3,3.4,3.6,6.1l-3.5,13.4C444.2,435,441.5,436.6,438.8,435.9z"/>
	<path class="st3" d="M467,443.2l-14.4-3.7c-2.7-0.7-4.3-3.4-3.6-6.1l3.5-13.4c0.7-2.7,3.4-4.3,6.1-3.6L473,420
		c2.7,0.7,4.3,3.4,3.6,6.1l-3.5,13.4C472.4,442.2,469.7,443.8,467,443.2z"/>
	<path class="st3" d="M494.5,450.3l-14.4-3.7c-2.7-0.7-4.3-3.4-3.6-6.1L480,427c0.7-2.7,3.4-4.3,6.1-3.6l14.4,3.7
		c2.7,0.7,4.3,3.4,3.6,6.1l-3.5,13.4C499.9,449.3,497.2,451,494.5,450.3z"/>
	<path class="st3" d="M522.7,457.5l-14.4-3.7c-2.7-0.7-4.3-3.4-3.6-6.1l3.5-13.4c0.7-2.7,3.4-4.3,6.1-3.6l14.4,3.7
		c2.7,0.7,4.3,3.4,3.6,6.1l-3.5,13.4C528.1,456.6,525.4,458.2,522.7,457.5z"/>
	<path class="st3" d="M550.9,464.8l-14.4-3.7c-2.7-0.7-4.3-3.4-3.6-6.1l3.5-13.4c0.7-2.7,3.4-4.3,6.1-3.6l14.4,3.7
		c2.7,0.7,4.3,3.4,3.6,6.1l-3.5,13.4C556.3,463.9,553.6,465.5,550.9,464.8z"/>
	<path class="st3" d="M578.7,472l-14.4-3.7c-2.7-0.7-4.3-3.4-3.6-6.1l3.5-13.4c0.7-2.7,3.4-4.3,6.1-3.6l14.4,3.7
		c2.7,0.7,4.3,3.4,3.6,6.1l-3.5,13.4C584.1,471.1,581.4,472.7,578.7,472z"/>
	<path class="st3" d="M606.6,479.2l-14.4-3.7c-2.7-0.7-4.3-3.4-3.6-6.1l3.5-13.4c0.7-2.7,3.4-4.3,6.1-3.6l14.4,3.7
		c2.7,0.7,4.3,3.4,3.6,6.1l-3.5,13.4C612,478.3,609.3,479.9,606.6,479.2z"/>
	<path class="st3" d="M634.1,486.3l-14.4-3.7c-2.7-0.7-4.3-3.4-3.6-6.1l3.5-13.4c0.7-2.7,3.4-4.3,6.1-3.6l14.4,3.7
		c2.7,0.7,4.3,3.4,3.6,6.1l-3.5,13.4C639.5,485.4,636.8,487,634.1,486.3z"/>
	<path class="st3" d="M404.1,398l-14.4-3.7c-2.7-0.7-4.3-3.4-3.6-6.1l3.5-13.4c0.7-2.7,3.4-4.3,6.1-3.6l14.4,3.7
		c2.7,0.7,4.3,3.4,3.6,6.1l-3.5,13.4C409.5,397.1,406.8,398.7,404.1,398z"/>
	<path class="st3" d="M431.9,405.2l-14.4-3.7c-2.7-0.7-4.3-3.4-3.6-6.1l3.5-13.4c0.7-2.7,3.4-4.3,6.1-3.6l14.4,3.7
		c2.7,0.7,4.3,3.4,3.6,6.1l-3.5,13.4C437.3,404.3,434.6,405.9,431.9,405.2z"/>
	<path class="st3" d="M459.8,412.4l-14.4-3.7c-2.7-0.7-4.3-3.4-3.6-6.1l3.5-13.4c0.7-2.7,3.4-4.3,6.1-3.6l14.4,3.7
		c2.7,0.7,4.3,3.4,3.6,6.1l-3.5,13.4C465.2,411.5,462.5,413.1,459.8,412.4z"/>
	<path class="st3" d="M487.7,419.6l-14.4-3.7c-2.7-0.7-4.3-3.4-3.6-6.1l3.5-13.4c0.7-2.7,3.4-4.3,6.1-3.6l14.4,3.7
		c2.7,0.7,4.3,3.4,3.6,6.1l-3.5,13.4C493.1,418.7,490.3,420.3,487.7,419.6z"/>
	<path class="st3" d="M515.8,426.9l-14.4-3.7c-2.7-0.7-4.3-3.4-3.6-6.1l3.5-13.4c0.7-2.7,3.4-4.3,6.1-3.6l14.4,3.7
		c2.7,0.7,4.3,3.4,3.6,6.1l-3.5,13.4C521.2,425.9,518.5,427.6,515.8,426.9z"/>
	<path class="st3" d="M543.5,434l-14.4-3.7c-2.7-0.7-4.3-3.4-3.6-6.1l3.5-13.4c0.7-2.7,3.4-4.3,6.1-3.6l14.4,3.7
		c2.7,0.7,4.3,3.4,3.6,6.1l-3.5,13.4C548.9,433.1,546.2,434.7,543.5,434z"/>
	<path class="st3" d="M571.6,441.3l-14.4-3.7c-2.7-0.7-4.3-3.4-3.6-6.1L557,418c0.7-2.7,3.4-4.3,6.1-3.6l14.4,3.7
		c2.7,0.7,4.3,3.4,3.6,6.1l-3.5,13.4C577,440.4,574.2,442,571.6,441.3z"/>
	<path class="st3" d="M599.3,448.5l-14.4-3.7c-2.7-0.7-4.3-3.4-3.6-6.1l3.5-13.4c0.7-2.7,3.4-4.3,6.1-3.6l14.4,3.7
		c2.7,0.7,4.3,3.4,3.6,6.1l-3.5,13.4C604.8,447.5,602,449.1,599.3,448.5z"/>
	<path class="st3" d="M627.2,455.7l-14.4-3.7c-2.7-0.7-4.3-3.4-3.6-6.1l3.5-13.4c0.7-2.7,3.4-4.3,6.1-3.6l14.4,3.7
		c2.7,0.7,4.3,3.4,3.6,6.1l-3.5,13.4C632.6,454.7,629.9,456.3,627.2,455.7z"/>
	<path class="st3" d="M655.1,462.9l-14.4-3.7c-2.7-0.7-4.3-3.4-3.6-6.1l3.5-13.4c0.7-2.7,3.4-4.3,6.1-3.6l14.4,3.7
		c2.7,0.7,4.3,3.4,3.6,6.1l-3.5,13.4C660.5,461.9,657.8,463.6,655.1,462.9z"/>
	<path class="st3" d="M703.8,475.4l-35.2-9.1c-2.7-0.7-4.3-3.4-3.6-6.1l3.5-13.4c0.7-2.7,3.4-4.3,6.1-3.6l35.2,9.1
		c2.7,0.7,4.3,3.4,3.6,6.1l-3.5,13.4C709.2,474.5,706.5,476.1,703.8,475.4z"/>
	<path class="st3" d="M696.8,502.5l-48.9-12.6c-2.7-0.7-4.3-3.4-3.6-6.1l3.5-13.4c0.7-2.7,3.4-4.3,6.1-3.6l48.9,12.6
		c2.7,0.7,4.3,3.4,3.6,6.1l-3.5,13.4C702.2,501.6,699.5,503.2,696.8,502.5z"/>
	<path class="st3" d="M404,369.1l-14.4-3.7c-2.7-0.7-4.3-3.4-3.6-6.1l3.5-13.4c0.7-2.7,3.4-4.3,6.1-3.6L410,346
		c2.7,0.7,4.3,3.4,3.6,6.1l-3.5,13.4C409.4,368.2,406.7,369.8,404,369.1z"/>
	<path class="st3" d="M432.2,376.4l-14.4-3.7c-2.7-0.7-4.3-3.4-3.6-6.1l3.5-13.4c0.7-2.7,3.4-4.3,6.1-3.6l14.4,3.7
		c2.7,0.7,4.3,3.4,3.6,6.1l-3.5,13.4C437.6,375.4,434.8,377.1,432.2,376.4z"/>
	<path class="st3" d="M460,383.5l-14.4-3.7c-2.7-0.7-4.3-3.4-3.6-6.1l3.5-13.4c0.7-2.7,3.4-4.3,6.1-3.6l14.4,3.7
		c2.7,0.7,4.3,3.4,3.6,6.1l-3.5,13.4C465.4,382.6,462.6,384.2,460,383.5z"/>
	<path class="st3" d="M487.6,390.7l-14.4-3.7c-2.7-0.7-4.3-3.4-3.6-6.1l3.5-13.4c0.7-2.7,3.4-4.3,6.1-3.6l14.4,3.7
		c2.7,0.7,4.3,3.4,3.6,6.1l-3.5,13.4C493,389.8,490.3,391.4,487.6,390.7z"/>
	<path class="st3" d="M515.9,398l-14.4-3.7c-2.7-0.7-4.3-3.4-3.6-6.1l3.5-13.4c0.7-2.7,3.4-4.3,6.1-3.6l14.4,3.7
		c2.7,0.7,4.3,3.4,3.6,6.1l-3.5,13.4C521.3,397.1,518.6,398.7,515.9,398z"/>
	<path class="st3" d="M544,405.3l-14.4-3.7c-2.7-0.7-4.3-3.4-3.6-6.1l3.5-13.4c0.7-2.7,3.4-4.3,6.1-3.6l14.4,3.7
		c2.7,0.7,4.3,3.4,3.6,6.1l-3.5,13.4C549.4,404.3,546.7,406,544,405.3z"/>
	<path class="st3" d="M571.7,412.4l-14.4-3.7c-2.7-0.7-4.3-3.4-3.6-6.1l3.5-13.4c0.7-2.7,3.4-4.3,6.1-3.6l14.4,3.7
		c2.7,0.7,4.3,3.4,3.6,6.1l-3.5,13.4C577.1,411.5,574.4,413.1,571.7,412.4z"/>
	<path class="st3" d="M599.4,419.6l-14.4-3.7c-2.7-0.7-4.3-3.4-3.6-6.1l3.5-13.4c0.7-2.7,3.4-4.3,6.1-3.6l14.4,3.7
		c2.7,0.7,4.3,3.4,3.6,6.1l-3.5,13.4C604.8,418.7,602.1,420.3,599.4,419.6z"/>
	<path class="st3" d="M627.1,426.7l-14.4-3.7c-2.7-0.7-4.3-3.4-3.6-6.1l3.5-13.4c0.7-2.7,3.4-4.3,6.1-3.6l14.4,3.7
		c2.7,0.7,4.3,3.4,3.6,6.1l-3.5,13.4C632.5,425.8,629.8,427.4,627.1,426.7z"/>
	<path class="st3" d="M655.2,434l-14.4-3.7c-2.7-0.7-4.3-3.4-3.6-6.1l3.5-13.4c0.7-2.7,3.4-4.3,6.1-3.6l14.4,3.7
		c2.7,0.7,4.3,3.4,3.6,6.1l-3.5,13.4C660.6,433.1,657.9,434.7,655.2,434z"/>
	<path class="st3" d="M683,441.2l-14.4-3.7c-2.7-0.7-4.3-3.4-3.6-6.1l3.5-13.4c0.7-2.7,3.4-4.3,6.1-3.6L689,418
		c2.7,0.7,4.3,3.4,3.6,6.1l-3.5,13.4C688.4,440.3,685.7,441.9,683,441.2z"/>
	<path class="st3" d="M710.8,448.3l-14.4-3.7c-2.7-0.7-4.3-3.4-3.6-6.1l3.5-13.4c0.7-2.7,3.4-4.3,6.1-3.6l14.4,3.7
		c2.7,0.7,4.3,3.4,3.6,6.1l-3.5,13.4C716.2,447.4,713.5,449,710.8,448.3z"/>
	<path class="st3" d="M397.1,338.9l-14.4-3.7c-2.7-0.7-4.3-3.4-3.6-6.1l3.5-13.4c0.7-2.7,3.4-4.3,6.1-3.6l14.4,3.7
		c2.7,0.7,4.3,3.4,3.6,6.1l-3.5,13.4C402.5,338,399.8,339.6,397.1,338.9z"/>
	<path class="st3" d="M425.1,346.1l-14.4-3.7c-2.7-0.7-4.3-3.4-3.6-6.1l3.5-13.4c0.7-2.7,3.4-4.3,6.1-3.6l14.4,3.7
		c2.7,0.7,4.3,3.4,3.6,6.1l-3.5,13.4C430.5,345.2,427.7,346.8,425.1,346.1z"/>
	<path class="st3" d="M452.5,353.2l-14.4-3.7c-2.7-0.7-4.3-3.4-3.6-6.1L438,330c0.7-2.7,3.4-4.3,6.1-3.6l14.4,3.7
		c2.7,0.7,4.3,3.4,3.6,6.1l-3.5,13.4C457.9,352.3,455.2,353.9,452.5,353.2z"/>
	<path class="st3" d="M480.8,360.5l-14.4-3.7c-2.7-0.7-4.3-3.4-3.6-6.1l3.5-13.4c0.7-2.7,3.4-4.3,6.1-3.6l14.4,3.7
		c2.7,0.7,4.3,3.4,3.6,6.1l-3.5,13.4C486.2,359.6,483.5,361.2,480.8,360.5z"/>
	<path class="st3" d="M508.6,367.7l-14.4-3.7c-2.7-0.7-4.3-3.4-3.6-6.1l3.5-13.4c0.7-2.7,3.4-4.3,6.1-3.6l14.4,3.7
		c2.7,0.7,4.3,3.4,3.6,6.1l-3.5,13.4C514,366.8,511.3,368.4,508.6,367.7z"/>
	<path class="st3" d="M536.6,374.9l-14.4-3.7c-2.7-0.7-4.3-3.4-3.6-6.1l3.5-13.4c0.7-2.7,3.4-4.3,6.1-3.6l14.4,3.7
		c2.7,0.7,4.3,3.4,3.6,6.1l-3.5,13.4C542,374,539.3,375.6,536.6,374.9z"/>
	<path class="st3" d="M564.7,382.2l-14.4-3.7c-2.7-0.7-4.3-3.4-3.6-6.1l3.5-13.4c0.7-2.7,3.4-4.3,6.1-3.6l14.4,3.7
		c2.7,0.7,4.3,3.4,3.6,6.1l-3.5,13.4C570.1,381.3,567.4,382.9,564.7,382.2z"/>
	<path class="st3" d="M592.3,389.3l-14.4-3.7c-2.7-0.7-4.3-3.4-3.6-6.1l3.5-13.4c0.7-2.7,3.4-4.3,6.1-3.6l14.4,3.7
		c2.7,0.7,4.3,3.4,3.6,6.1l-3.5,13.4C597.7,388.4,595,390,592.3,389.3z"/>
	<path class="st3" d="M620,396.5l-14.4-3.7c-2.7-0.7-4.3-3.4-3.6-6.1l3.5-13.4c0.7-2.7,3.4-4.3,6.1-3.6l14.4,3.7
		c2.7,0.7,4.3,3.4,3.6,6.1l-3.5,13.4C625.4,395.6,622.6,397.2,620,396.5z"/>
	<path class="st3" d="M648.1,403.8l-14.4-3.7c-2.7-0.7-4.3-3.4-3.6-6.1l3.5-13.4c0.7-2.7,3.4-4.3,6.1-3.6l14.4,3.7
		c2.7,0.7,4.3,3.4,3.6,6.1l-3.5,13.4C653.5,402.8,650.8,404.4,648.1,403.8z"/>
	<path class="st3" d="M675.9,410.9l-14.4-3.7c-2.7-0.7-4.3-3.4-3.6-6.1l3.5-13.4c0.7-2.7,3.4-4.3,6.1-3.6l14.4,3.7
		c2.7,0.7,4.3,3.4,3.6,6.1l-3.5,13.4C681.3,410,678.5,411.6,675.9,410.9z"/>
	<path class="st3" d="M718,421.8l-28.5-7.4c-2.7-0.7-4.3-3.4-3.6-6.1l3.5-13.4c0.7-2.7,3.4-4.3,6.1-3.6l28.5,7.4
		c2.7,0.7,4.3,3.4,3.6,6.1l-3.5,13.4C723.4,420.9,720.7,422.5,718,421.8z"/>
	<path class="st3" d="M378.4,305.3l-15.6-4c-2.7-0.7-4.3-3.4-3.6-6.1l1.2-4.5c0.7-2.7,3.4-4.3,6.1-3.6l15.6,4
		c2.7,0.7,4.3,3.4,3.6,6.1l-1.2,4.5C383.8,304.4,381,306,378.4,305.3z"/>
	<path class="st3" d="M407.3,312.8l-15.6-4c-2.7-0.7-4.3-3.4-3.6-6.1l1.2-4.5c0.7-2.7,3.4-4.3,6.1-3.6l15.6,4
		c2.7,0.7,4.3,3.4,3.6,6.1l-1.2,4.5C412.7,311.8,409.9,313.4,407.3,312.8z"/>
	<path class="st3" d="M436.1,320.2l-15.6-4c-2.7-0.7-4.3-3.4-3.6-6.1l1.2-4.5c0.7-2.7,3.4-4.3,6.1-3.6l15.6,4
		c2.7,0.7,4.3,3.4,3.6,6.1l-1.2,4.5C441.5,319.3,438.8,320.9,436.1,320.2z"/>
	<path class="st3" d="M465,327.7l-15.6-4c-2.7-0.7-4.3-3.4-3.6-6.1l1.2-4.5c0.7-2.7,3.4-4.3,6.1-3.6l15.6,4c2.7,0.7,4.3,3.4,3.6,6.1
		l-1.2,4.5C470.4,326.8,467.7,328.4,465,327.7z"/>
	<path class="st3" d="M493.9,335.1l-15.6-4c-2.7-0.7-4.3-3.4-3.6-6.1l1.2-4.5c0.7-2.7,3.4-4.3,6.1-3.6l15.6,4
		c2.7,0.7,4.3,3.4,3.6,6.1l-1.2,4.5C499.3,334.2,496.6,335.8,493.9,335.1z"/>
	<path class="st3" d="M522.8,342.6l-15.6-4c-2.7-0.7-4.3-3.4-3.6-6.1l1.2-4.5c0.7-2.7,3.4-4.3,6.1-3.6l15.6,4
		c2.7,0.7,4.3,3.4,3.6,6.1l-1.2,4.5C528.2,341.7,525.5,343.3,522.8,342.6z"/>
	<path class="st3" d="M551.7,350.1l-15.6-4c-2.7-0.7-4.3-3.4-3.6-6.1l1.2-4.5c0.7-2.7,3.4-4.3,6.1-3.6l15.6,4
		c2.7,0.7,4.3,3.4,3.6,6.1l-1.2,4.5C557.1,349.2,554.3,350.8,551.7,350.1z"/>
	<path class="st3" d="M580.6,357.5l-15.6-4c-2.7-0.7-4.3-3.4-3.6-6.1l1.2-4.5c0.7-2.7,3.4-4.3,6.1-3.6l15.6,4
		c2.7,0.7,4.3,3.4,3.6,6.1l-1.2,4.5C586,356.6,583.2,358.2,580.6,357.5z"/>
	<path class="st3" d="M609.4,365l-15.6-4c-2.7-0.7-4.3-3.4-3.6-6.1l1.2-4.5c0.7-2.7,3.4-4.3,6.1-3.6l15.6,4c2.7,0.7,4.3,3.4,3.6,6.1
		l-1.2,4.5C614.8,364.1,612.1,365.7,609.4,365z"/>
	<path class="st3" d="M638.3,372.5l-15.6-4c-2.7-0.7-4.3-3.4-3.6-6.1l1.2-4.5c0.7-2.7,3.4-4.3,6.1-3.6l15.6,4
		c2.7,0.7,4.3,3.4,3.6,6.1l-1.2,4.5C643.7,371.5,641,373.1,638.3,372.5z"/>
	<path class="st3" d="M667.2,379.9l-15.6-4c-2.7-0.7-4.3-3.4-3.6-6.1l1.2-4.5c0.7-2.7,3.4-4.3,6.1-3.6l15.6,4
		c2.7,0.7,4.3,3.4,3.6,6.1l-1.2,4.5C672.6,379,669.9,380.6,667.2,379.9z"/>
	<path class="st3" d="M696.1,387.4l-15.6-4c-2.7-0.7-4.3-3.4-3.6-6.1l1.2-4.5c0.7-2.7,3.4-4.3,6.1-3.6l15.6,4
		c2.7,0.7,4.3,3.4,3.6,6.1l-1.2,4.5C701.5,386.5,698.8,388.1,696.1,387.4z"/>
	<path class="st3" d="M725,394.8l-15.6-4c-2.7-0.7-4.3-3.4-3.6-6.1l1.2-4.5c0.7-2.7,3.4-4.3,6.1-3.6l15.6,4c2.7,0.7,4.3,3.4,3.6,6.1
		l-1.2,4.5C730.4,393.9,727.6,395.5,725,394.8z"/>
	<path class="st2" d="M485.4,662.7l-71-18.3l1.4-0.7c1.7-0.8,3.7-1,5.5-0.5l58.6,15.1c1.8,0.5,3.5,1.6,4.6,3.1L485.4,662.7z"/>
	
		<linearGradient id="SVGID_1_" gradientUnits="userSpaceOnUse" x1="213.5672" y1="-15.0945" x2="817.7425" y2="-15.0945" gradientTransform="matrix(0.9682 0.2502 -0.2502 0.9682 63.4393 72.7977)">
		<stop  offset="0" style="stop-color:#5252A4"/>
		<stop  offset="1" style="stop-color:#4D83B9"/>
	</linearGradient>
	<polygon class="st5" points="295.7,27.5 880.7,178.6 795.1,336 301.1,208.3 	"/>
</g>
<g>
	<path class="st0" d="M112.4,515.6l-69,12.7c-5.2,0.9-10.1-2.5-11.1-7.6l-30-163.3c-0.9-5.2,2.5-10.1,7.6-11.1l69-12.7
		c5.2-0.9,10.1,2.5,11.1,7.6l30,163.3C121,509.7,117.6,514.7,112.4,515.6z"/>
	
		<linearGradient id="SVGID_2_" gradientUnits="userSpaceOnUse" x1="3.9884" y1="579.9014" x2="86.72" y2="579.9014" gradientTransform="matrix(0.9836 -0.1806 0.1806 0.9836 -88.1213 -131.3606)">
		<stop  offset="0" style="stop-color:#5252A4"/>
		<stop  offset="1" style="stop-color:#4D83B9"/>
	</linearGradient>
	<path class="st6" d="M110.3,512.9L44.5,525c-4.3,0.8-8.4-2.1-9.2-6.3L5.8,357.9c-0.8-4.3,2.1-8.4,6.3-9.2l7.4-1.4
		c1.1-0.2,2.2,0.3,2.8,1.3l0.7,1.2c1.1,1.9,3.3,2.9,5.4,2.5l34.8-6.4c2-0.4,3.6-1.9,4.1-3.8l0.5-2.1c0.3-1,1.1-1.8,2.1-2l7.9-1.5
		c4.3-0.8,8.4,2,9.2,6.3l29.5,160.7C117.4,508,114.6,512.1,110.3,512.9z"/>
</g>
<g>
	<path class="st0" d="M966.5,550.2c6.3-11.7,6.4-23.7-4-32.9c-7.9-7-19.5-14.1-30.4-13.5c-11.7,0.6-18,9.7-23.7,18.9
		c-6.2,10.1-12.4,20.1-18.4,30.3c-5.4,9.1-10.6,18.3-15.4,27.7c-4.6,8.8-8.3,18.7-2.8,27.8c6.7,11,21.5,19.7,34.3,20.6
		c5.5,0.4,9.9-0.6,14.1-4.3c3.6-3.1,6.7-6.9,9.3-10.9C943.2,593.5,954.9,571.7,966.5,550.2z"/>
	
		<ellipse transform="matrix(0.503 -0.8643 0.8643 0.503 -66.6849 1076.5626)" class="st2" cx="902.8" cy="596.3" rx="7.3" ry="7.3"/>
</g>
</svg>
