<svg id="SVGDoc" width="410" height="214" xmlns="http://www.w3.org/2000/svg" version="1.1" xmlns:xlink="http://www.w3.org/1999/xlink" xmlns:avocode="https://avocode.com/" viewBox="0 0 410 214"><defs><path d="M273,1682c0,-5.52285 4.47715,-10 10,-10h192c5.52285,0 10,4.47715 10,10v114c0,5.52285 -4.47715,10 -10,10h-192c-5.52285,0 -10,-4.47715 -10,-10z" id="Path-0"/><path d="M501,1694c0,-2.76142 2.23858,-5 5,-5v0c2.76142,0 5,2.23858 5,5v0c0,2.76142 -2.23858,5 -5,5v0c-2.76142,0 -5,-2.23858 -5,-5z" id="Path-1"/><path d="M405,1694c0,-2.76142 2.23858,-5 5,-5h55c2.76142,0 5,2.23858 5,5v0c0,2.76142 -2.23858,5 -5,5h-55c-2.76142,0 -5,-2.23858 -5,-5z" id="Path-2"/><path d="M466,1728.5c0,-3.03757 2.46243,-5.5 5.5,-5.5h31c3.03757,0 5.5,2.46243 5.5,5.5v0c0,3.03757 -2.46243,5.5 -5.5,5.5h-31c-3.03757,0 -5.5,-2.46243 -5.5,-5.5z" id="Path-3"/><path d="M397,1728.5c0,-3.03757 2.46243,-5.5 5.5,-5.5h21c3.03757,0 5.5,2.46243 5.5,5.5v0c0,3.03757 -2.46243,5.5 -5.5,5.5h-21c-3.03757,0 -5.5,-2.46243 -5.5,-5.5z" id="Path-4"/><path d="M405,1751.5c0,-3.03757 2.46243,-5.5 5.5,-5.5h27c3.03757,0 5.5,2.46243 5.5,5.5v0c0,3.03757 -2.46243,5.5 -5.5,5.5h-27c-3.03757,0 -5.5,-2.46243 -5.5,-5.5z" id="Path-5"/><path d="M287,1776.5c0,-3.03757 2.46243,-5.5 5.5,-5.5h76c3.03757,0 5.5,2.46243 5.5,5.5v0c0,3.03757 -2.46243,5.5 -5.5,5.5h-76c-3.03757,0 -5.5,-2.46243 -5.5,-5.5z" id="Path-6"/><path d="M367,1607c0,-5.52285 4.47715,-10 10,-10h248c5.52285,0 10,4.47715 10,10v149c0,5.52285 -4.47715,10 -10,10h-248c-5.52285,0 -10,-4.47715 -10,-10z" id="Path-7"/><path d="M633,1618h-131c-9.38884,0 -17,7.61116 -17,17c0,9.38884 7.61116,17 17,17h131c5.09118,0 9.65964,-2.23802 12.77525,-5.78392c9.22475,0.31283 9.22475,8.94057 9.22475,4.53224c0,-3.21359 -3.62605,-7.27584 -6.11339,-9.68435c0.71935,-1.88348 1.11339,-3.92771 1.11339,-6.06397c0,-9.38884 -7.61116,-17 -17,-17z" id="Path-8"/><path d="M392,1671.5c0,-5.24671 4.25329,-9.5 9.5,-9.5c5.24671,0 9.5,4.25329 9.5,9.5c0,5.24671 -4.25329,9.5 -9.5,9.5c-5.24671,0 -9.5,-4.25329 -9.5,-9.5z" id="Path-9"/><path d="M416,1677c0,-8.28427 6.71573,-15 15,-15h99c8.28427,0 15,6.71573 15,15v13c0,8.28427 -6.71573,15 -15,15h-99c-8.28427,0 -15,-6.71573 -15,-15z" id="Path-10"/><path d="M448,1673.5c0,-0.82843 0.67157,-1.5 1.5,-1.5h63c0.82843,0 1.5,0.67157 1.5,1.5v0c0,0.82843 -0.67157,1.5 -1.5,1.5h-63c-0.82843,0 -1.5,-0.67157 -1.5,-1.5z" id="Path-11"/><path d="M448,1683.5c0,-0.82843 0.67157,-1.5 1.5,-1.5h36c0.82843,0 1.5,0.67157 1.5,1.5v0c0,0.82843 -0.67157,1.5 -1.5,1.5h-36c-0.82843,0 -1.5,-0.67157 -1.5,-1.5z" id="Path-12"/><path d="M495,1683.5c0,-0.82843 0.67157,-1.5 1.5,-1.5h37c0.82843,0 1.5,0.67157 1.5,1.5v0c0,0.82843 -0.67157,1.5 -1.5,1.5h-37c-0.82843,0 -1.5,-0.67157 -1.5,-1.5z" id="Path-13"/><path d="M518,1673.5c0,-0.82843 0.67157,-1.5 1.5,-1.5v0c0.82843,0 1.5,0.67157 1.5,1.5v0c0,0.82843 -0.67157,1.5 -1.5,1.5v0c-0.82843,0 -1.5,-0.67157 -1.5,-1.5z" id="Path-14"/><path d="M535,1692.5c0,-0.82843 -0.67157,-1.5 -1.5,-1.5h-97c-0.82843,0 -1.5,0.67157 -1.5,1.5v0c0,0.82843 0.67157,1.5 1.5,1.5h97c0.82843,0 1.5,-0.67157 1.5,-1.5z" id="Path-15"/><path d="M430,1692.5c0,-0.82843 -0.67157,-1.5 -1.5,-1.5v0c-0.82843,0 -1.5,0.67157 -1.5,1.5v0c0,0.82843 0.67157,1.5 1.5,1.5v0c0.82843,0 1.5,-0.67157 1.5,-1.5z" id="Path-16"/><path d="M392.24,1779.99808l287.5161,-1.08808" id="Path-17"/><path d="M374,1609.5c0,-2.48528 1.94756,-4.5 4.35,-4.5c2.40244,0 4.35,2.01472 4.35,4.5c0,2.48528 -1.94756,4.5 -4.35,4.5c-2.40244,0 -4.35,-2.01472 -4.35,-4.5z" id="Path-18"/><path d="M387.53,1609.5c0,-2.48528 1.94756,-4.5 4.35,-4.5c2.40244,0 4.35,2.01472 4.35,4.5c0,2.48528 -1.94756,4.5 -4.35,4.5c-2.40244,0 -4.35,-2.01472 -4.35,-4.5z" id="Path-19"/><path d="M401.06,1609.5c0,-2.48528 1.94756,-4.5 4.35,-4.5c2.40244,0 4.35,2.01472 4.35,4.5c0,2.48528 -1.94756,4.5 -4.35,4.5c-2.40244,0 -4.35,-2.01472 -4.35,-4.5z" id="Path-20"/><path d="M653.5,1592h-135c-12.42641,0 -22.5,10.07359 -22.5,22.5c0,12.42641 10.07359,22.5 22.5,22.5h135c7.01159,0 13.2741,-3.2072 17.40053,-8.23461c12.09947,0.36647 12.09947,12.12121 12.09947,6.13833c0,-4.43519 -4.90573,-10.06451 -8.14502,-13.29813c0.74281,-2.23352 1.14502,-4.62259 1.14502,-7.10559c0,-12.42641 -10.07359,-22.5 -22.5,-22.5z" id="Path-21"/><path d="M600.33,1714h-70.33c-6.62742,0 -12,5.37258 -12,12c0,6.62742 5.37258,12 12,12h70.33c3.74014,0 7.08064,-1.71108 9.28139,-4.39315c6.38861,0.16538 6.38861,6.47399 6.38861,3.27513c0,-2.36966 -2.58012,-5.37847 -4.27761,-7.10157c0.39421,-1.18856 0.60761,-2.45957 0.60761,-3.78041c0,-6.62742 -5.37258,-12 -12,-12z" id="Path-22"/><path d="M532,1722.555c0,-0.8588 0.6962,-1.555 1.555,-1.555h44.89c0.8588,0 1.555,0.6962 1.555,1.555v0c0,0.8588 -0.6962,1.555 -1.555,1.555h-44.89c-0.8588,0 -1.555,-0.6962 -1.555,-1.555z" id="Path-23"/><path d="M532,1730.445c0,-0.8588 0.6962,-1.555 1.555,-1.555h24.89c0.8588,0 1.555,0.6962 1.555,1.555v0c0,0.8588 -0.6962,1.555 -1.555,1.555h-24.89c-0.8588,0 -1.555,-0.6962 -1.555,-1.555z" id="Path-24"/><path d="M566,1730.445c0,-0.8588 0.6962,-1.555 1.555,-1.555h25.89c0.8588,0 1.555,0.6962 1.555,1.555v0c0,0.8588 -0.6962,1.555 -1.555,1.555h-25.89c-0.8588,0 -1.555,-0.6962 -1.555,-1.555z" id="Path-25"/><path d="M583,1722.5c0,-0.82843 0.67157,-1.5 1.5,-1.5v0c0.82843,0 1.5,0.67157 1.5,1.5v0.11c0,0.82843 -0.67157,1.5 -1.5,1.5v0c-0.82843,0 -1.5,-0.67157 -1.5,-1.5z" id="Path-26"/><path d="M524,1607.545c0,-1.40556 1.13944,-2.545 2.545,-2.545h86.16c1.40556,0 2.545,1.13944 2.545,2.545v0c0,1.40556 -1.13944,2.545 -2.545,2.545h-86.16c-1.40556,0 -2.545,-1.13944 -2.545,-2.545z" id="Path-27"/><path d="M524,1619.545c0,-1.40556 1.13944,-2.545 2.545,-2.545h47.16c1.40556,0 2.545,1.13944 2.545,2.545v0c0,1.40556 -1.13944,2.545 -2.545,2.545h-47.16c-1.40556,0 -2.545,-1.13944 -2.545,-2.545z" id="Path-28"/><path d="M587,1619.545c0,-1.40556 1.13944,-2.545 2.545,-2.545h51.16c1.40556,0 2.545,1.13944 2.545,2.545v0c0,1.40556 -1.13944,2.545 -2.545,2.545h-51.16c-1.40556,0 -2.545,-1.13944 -2.545,-2.545z" id="Path-29"/><path d="M620,1607.545c0,-1.40556 1.13944,-2.545 2.545,-2.545h0.16c1.40556,0 2.545,1.13944 2.545,2.545v0c0,1.40556 -1.13944,2.545 -2.545,2.545h-0.16c-1.40556,0 -2.545,-1.13944 -2.545,-2.545z" id="Path-30"/><clipPath id="clip-B1914E19-96F0-49A6-A994-8EDA7EAAA9E7"><use xlink:href="#Path-7" /></clipPath></defs><desc>Generated with Avocode.</desc><g transform="matrix(1,0,0,1,-273,-1592)"><g><title>Img-2</title><g><title>Img-1</title><g><title>Group 5</title><g transform="matrix(-1,0,0,1,784,0)"><title>Group 9</title><g><title>Group 10</title><g><title>Bg</title><use xlink:href="#Path-0" fill="#ceedfa" fill-opacity="1"/></g><g><title>Rectangle</title><use xlink:href="#Path-1" fill="#93cce3" fill-opacity="1"/></g><g><title>Rectangle</title><use xlink:href="#Path-2" fill="#93cce3" fill-opacity="1"/></g><g><title>Rectangle</title><use xlink:href="#Path-3" fill="#93cce3" fill-opacity="1"/></g><g><title>Rectangle</title><use xlink:href="#Path-4" fill="#93cce3" fill-opacity="1"/></g><g><title>Rectangle</title><use xlink:href="#Path-5" fill="#93cce3" fill-opacity="1"/></g><g><title>Rectangle</title><use xlink:href="#Path-6" fill="#93cce3" fill-opacity="1"/></g></g></g><g><title>Bg</title><use xlink:href="#Path-7" fill="#ffffff" fill-opacity="1"/></g><g clip-path="url(#clip-B1914E19-96F0-49A6-A994-8EDA7EAAA9E7)"><title>Combined Shape</title><use xlink:href="#Path-8" fill="#f1f0f6" fill-opacity="1"/></g><g clip-path="url(#clip-B1914E19-96F0-49A6-A994-8EDA7EAAA9E7)"><title>Group 11</title><g><title>Oval</title><use xlink:href="#Path-9" fill="#412897" fill-opacity="1"/></g><g><title>Rectangle</title><use xlink:href="#Path-10" fill="#f4f3f7" fill-opacity="1"/></g><g transform="matrix(-1,0,0,1,962,0)"><title>Group 13</title><g><title>Group 15</title><g><title>Rectangle Copy 14</title><use xlink:href="#Path-11" fill="#7c63ce" fill-opacity="1"/></g><g><title>Rectangle Copy 15</title><use xlink:href="#Path-12" fill="#7c63ce" fill-opacity="1"/></g><g><title>Rectangle Copy 16</title><use xlink:href="#Path-13" fill="#7c63ce" fill-opacity="1"/></g><g><title>Rectangle Copy 17</title><use xlink:href="#Path-14" fill="#7c63ce" fill-opacity="1"/></g><g><title>Rectangle Copy 14</title><use xlink:href="#Path-15" fill="#7c63ce" fill-opacity="1"/></g><g><title>Rectangle Copy 17</title><use xlink:href="#Path-16" fill="#7c63ce" fill-opacity="1"/></g></g></g></g><g clip-path="url(#clip-B1914E19-96F0-49A6-A994-8EDA7EAAA9E7)"><title>Lines</title><g opacity="0.06"><title>Line 3 Copy 6</title><use xlink:href="#Path-17" fill-opacity="0" fill="#ffffff" stroke-dasharray="4 6" stroke-linejoin="miter" stroke-linecap="square" stroke-opacity="1" stroke="#3f3379" stroke-miterlimit="50" stroke-width="2"/></g></g><g clip-path="url(#clip-B1914E19-96F0-49A6-A994-8EDA7EAAA9E7)"><title>Dots</title><g><title>Oval</title><use xlink:href="#Path-18" fill="#412897" fill-opacity="1"/></g><g opacity="0.7"><title>Oval Copy</title><use xlink:href="#Path-19" fill="#412897" fill-opacity="1"/></g><g opacity="0.3"><title>Oval Copy 2</title><use xlink:href="#Path-20" fill="#412897" fill-opacity="1"/></g></g></g></g><g><title>Combined Shape</title><use xlink:href="#Path-21" fill="#412897" fill-opacity="1"/></g><g><title>Group 12</title><g><title>Combined Shape Copy</title><use xlink:href="#Path-22" fill="#f4f3f7" fill-opacity="1"/></g><g><title>Group 16</title><g><title>Rectangle Copy 10</title><use xlink:href="#Path-23" fill="#7c63ce" fill-opacity="1"/></g><g><title>Rectangle Copy 11</title><use xlink:href="#Path-24" fill="#7c63ce" fill-opacity="1"/></g><g><title>Rectangle Copy 12</title><use xlink:href="#Path-25" fill="#7c63ce" fill-opacity="1"/></g><g><title>Rectangle Copy 13</title><use xlink:href="#Path-26" fill="#7c63ce" fill-opacity="1"/></g></g></g><g><title>Rectangle</title><use xlink:href="#Path-27" fill="#7c63ce" fill-opacity="1"/></g><g><title>Rectangle Copy 5</title><use xlink:href="#Path-28" fill="#7c63ce" fill-opacity="1"/></g><g><title>Rectangle Copy 6</title><use xlink:href="#Path-29" fill="#7c63ce" fill-opacity="1"/></g><g><title>Rectangle Copy 2</title><use xlink:href="#Path-30" fill="#7c63ce" fill-opacity="1"/></g></g></g></svg>