<svg id="SVGDoc" width="80" height="25" xmlns="http://www.w3.org/2000/svg" version="1.1" xmlns:xlink="http://www.w3.org/1999/xlink" xmlns:avocode="https://avocode.com/" viewBox="0 0 80 25"><defs><path d="M397.14461,3732.00501c0,-2.16167 -1.68915,-3.64071 -3.6496,-3.64071c-1.96046,0 -3.64961,1.47904 -3.64961,3.64071c0,2.14 1.68915,3.64071 3.64961,3.64071c1.96045,0 3.6496,-1.50343 3.6496,-3.64071zM400,3732c0,3.45446 -2.91843,6 -6.5,6c-3.58157,0 -6.5,-2.54554 -6.5,-6c0,-3.47881 2.91843,-6 6.5,-6c3.58157,0 6.5,2.52119 6.5,6z" id="Path-0"/><path d="M411.14461,3732.00501c0,-2.16167 -1.68915,-3.64071 -3.6496,-3.64071c-1.96046,0 -3.64961,1.47904 -3.64961,3.64071c0,2.14 1.68915,3.64071 3.64961,3.64071c1.96045,0 3.6496,-1.50343 3.6496,-3.64071zM414,3732c0,3.45446 -2.91843,6 -6.5,6c-3.58157,0 -6.5,-2.54554 -6.5,-6c0,-3.4761 2.91843,-6 6.5,-6c3.58157,0 6.5,2.52119 6.5,6z" id="Path-1"/><path d="M425.37288,3732.2382c0,-2.18869 -1.59074,-3.78888 -3.61505,-3.78888c-2.05178,0 -3.77077,1.60019 -3.77077,3.78888c0,2.16628 1.71898,3.74405 3.77077,3.74405c2.02431,0 3.61505,-1.57777 3.61505,-3.74405zM428,3726.37553v11.15927c0,4.59038 -2.95343,6.4652 -6.44497,6.4652c-3.28669,0 -5.26481,-2.01495 -6.01082,-3.66277l2.59267,-0.98926c0.46166,1.01168 1.59289,2.20551 3.4151,2.20551c2.23494,0 3.61994,-1.2639 3.61994,-3.64316v-0.89397h-0.10395c-0.66651,0.75385 -1.95061,1.41242 -3.57103,1.41242c-3.39064,0 -6.49694,-2.70714 -6.49694,-6.19056c0,-3.50864 3.1063,-6.23821 6.49694,-6.23821c1.61736,0 2.90146,0.65857 3.57103,1.39h0.10395v-1.01167h2.82808z" id="Path-2"/><path d="M432,3720v19h-3v-19z" id="Path-3"/><path d="M436.06966,3731.81876l6.29822,-2.22633c-0.34637,-0.74933 -1.38866,-1.27142 -2.61526,-1.27142c-1.57296,0 -3.7624,1.18215 -3.68296,3.49775zM443.46419,3733.97746l2.40235,1.36339c-0.77536,0.97655 -2.64386,2.65915 -5.87241,2.65915c-4.00391,0 -6.99413,-2.63481 -6.99413,-6c0,-3.56808 3.01564,-6 6.64776,-6c3.65754,0 5.44659,2.47791 6.03129,3.81695l0.32095,0.6817l-9.4219,3.32191c0.72134,1.20379 1.84307,1.81785 3.41603,1.81785c1.57615,0 2.66928,-0.66005 3.47006,-1.66095z" id="Path-4"/><path d="M376.40977,3730.29297v-2.59567h9.45016c0.09239,0.45238 0.14007,0.98751 0.14007,1.56678c0,1.94745 -0.57518,4.35555 -2.42885,6.07129c-1.80301,1.7378 -4.10669,2.66463 -7.15839,2.66463c-5.65639,0 -10.41276,-4.26452 -10.41276,-9.5c0,-5.23548 4.75637,-9.5 10.41276,-9.5c3.12919,0 5.35836,1.13647 7.03322,2.61774l-1.97884,1.83159c-1.20101,-1.04268 -2.82819,-1.85366 -5.05737,-1.85366c-4.13053,0 -7.36104,3.08116 -7.36104,6.90433c0,3.82317 3.23051,6.90433 7.36104,6.90433c2.67919,0 4.20504,-0.99579 5.18254,-1.90056c0.79273,-0.73374 1.31426,-1.78193 1.51989,-3.21356z" id="Path-5"/></defs><desc>Generated with Avocode.</desc><g transform="matrix(1,0,0,1,-366,-3719)"><g><title>Google_2015_logo</title><g><title>Shape</title><use xlink:href="#Path-0" fill="#493d83" fill-opacity="1"/></g><g><title>Shape</title><use xlink:href="#Path-1" fill="#493d83" fill-opacity="1"/></g><g><title>Shape</title><use xlink:href="#Path-2" fill="#493d83" fill-opacity="1"/></g><g><title>Path</title><use xlink:href="#Path-3" fill="#493d83" fill-opacity="1"/></g><g><title>Shape</title><use xlink:href="#Path-4" fill="#493d83" fill-opacity="1"/></g><g><title>Path</title><use xlink:href="#Path-5" fill="#493d83" fill-opacity="1"/></g></g></g></svg>