<svg id="SVGDoc" width="1440" height="303" xmlns="http://www.w3.org/2000/svg" version="1.1" xmlns:xlink="http://www.w3.org/1999/xlink" xmlns:avocode="https://avocode.com/" viewBox="0 0 1440 303"><defs><path d="M0,3300v-303h1440v303z" id="Path-0"/><path d="M674,2997c0,-25.4051 20.5949,-46 46,-46c25.4051,0 46,20.5949 46,46c0,25.4051 -20.5949,46 -46,46c-25.4051,0 -46,-20.5949 -46,-46z" id="Path-1"/><path d="M605,2997c0,-63.51275 51.48725,-115 115,-115c63.51275,0 115,51.48725 115,115c0,63.51275 -51.48725,115 -115,115c-63.51275,0 -115,-51.48725 -115,-115z" id="Path-2"/><path d="M531,2997c0,-104.38182 84.61818,-189 189,-189c104.38182,0 189,84.61818 189,189c0,104.38182 -84.61818,189 -189,189c-104.38182,0 -189,-84.61818 -189,-189z" id="Path-3"/><path d="M446,2997.5c0,-151.60216 122.89784,-274.5 274.5,-274.5c151.60216,0 274.5,122.89784 274.5,274.5c0,151.60216 -122.89784,274.5 -274.5,274.5c-151.60216,0 -274.5,-122.89784 -274.5,-274.5z" id="Path-4"/><linearGradient id="LinearGradient1588" gradientUnits="userSpaceOnUse" x1="0" y1="3078.965549292822" x2="1440" y2="3078.965549292822"><stop stop-opacity="1" stop-color="#53439d" offset="0"></stop><stop stop-opacity="1" stop-color="#4aa7ca" offset="1"></stop></linearGradient></defs><desc>Generated with Avocode.</desc><g transform="matrix(1,0,0,1,0,-2997)"><g><title>Bg</title><use xlink:href="#Path-0" fill="url(#LinearGradient1588)"/></g><g opacity="0.25"><title>Oval</title><use xlink:href="#Path-1" fill-opacity="0" fill="#ffffff" stroke-linejoin="miter" stroke-linecap="butt" stroke-opacity="1" stroke="#93e2ff" stroke-miterlimit="50" stroke-width="2"/></g><g opacity="0.15"><title>Oval</title><use xlink:href="#Path-2" fill-opacity="0" fill="#ffffff" stroke-linejoin="miter" stroke-linecap="butt" stroke-opacity="1" stroke="#93e2ff" stroke-miterlimit="50" stroke-width="2"/></g><g opacity="0.1"><title>Oval</title><use xlink:href="#Path-3" fill-opacity="0" fill="#ffffff" stroke-linejoin="miter" stroke-linecap="butt" stroke-opacity="1" stroke="#93e2ff" stroke-miterlimit="50" stroke-width="2"/></g><g opacity="0.05"><title>Oval</title><use xlink:href="#Path-4" fill-opacity="0" fill="#ffffff" stroke-linejoin="miter" stroke-linecap="butt" stroke-opacity="1" stroke="#93e2ff" stroke-miterlimit="50" stroke-width="2"/></g></g></svg>