<svg id="SVGDoc" width="111" height="25" xmlns="http://www.w3.org/2000/svg" version="1.1" xmlns:xlink="http://www.w3.org/1999/xlink" xmlns:avocode="https://avocode.com/" viewBox="0 0 111 25"><defs><path d="M182,59.24h19.13238v24.60405h-19.13238z" id="Path-0"/><path d="M201.13238,76.33429c0,5.07809 -4.00524,7.51 -9.51238,7.51c-4.47048,0 -9.62,-2.575 -9.62,-7.58143c0,-0.82262 0.21429,-1.00143 1.0369,-1.00143h3.46905c0.82262,0 1.21595,0.10714 1.28738,1.00143c0.03572,0.46476 0.21453,0.92976 0.67929,1.46619c0.71548,0.85809 2.18167,1.18 3.50476,1.18c1.93119,0 3.50452,-0.42905 3.50452,-2.43191c0,-2.00262 -3.18261,-2.03833 -6.22238,-3.00381c-3.61214,-1.14452 -6.93785,-2.575 -6.93785,-7.11666c0,-4.64905 4.22,-6.93786 8.69023,-7.11667c4.54167,0 9.51262,2.07429 9.51262,6.79476c0,0.85834 -0.21452,1.00143 -1.03714,1.00143h-3.50452c-0.67953,0 -0.78667,-0.50071 -0.96572,-0.96571c-0.14309,-0.35762 -0.3219,-0.64358 -0.75095,-1.07286c-0.67929,-0.64357 -1.9669,-0.96572 -3.03976,-0.96572c-1.18024,0 -3.14714,0.465 -3.14714,2.07453c0,2.18119 5.25714,2.96809 6.68761,3.54024c2.57477,0.78666 6.36548,1.82404 6.36548,6.68762" id="Path-1"/><path d="M223.7631,68.06667c0,4.97071 -3.29024,8.26119 -9.40548,8.26119h-3.4331v5.93619c0,0.82262 -0.39333,1.03714 -1.0369,1.03714h-3.54072c-0.64357,0 -1.0369,-0.21452 -1.0369,-1.03714v-21.45715c0,-0.64357 0.21429,-1.0369 1.0369,-1.0369h8.04667c6.15095,0 9.36953,3.36167 9.36953,8.29667M218.36309,68.17405c0,-1.85977 -1.21595,-3.36167 -4.00547,-3.36167h-3.4331v6.68738h3.4331c2.78952,0 4.00547,-1.53762 4.00547,-3.32571" id="Path-2"/><path d="M292.34667,60.0369v21.45715c0,0.64381 -0.21453,1.03714 -1.03715,1.03714h-3.25428c-0.89405,0 -1.14429,-0.50071 -1.60929,-1.21595l-7.58166,-12.26643v12.44524c0,0.82262 -0.39334,1.03714 -1.03691,1.03714h-3.54048c-0.64357,0 -1.0369,-0.21452 -1.0369,-1.03714v-21.45715c0,-0.64357 0.21429,-1.0369 1.0369,-1.0369h3.36143c0.89429,0 1.14453,0.50048 1.60929,1.21595l7.58167,12.23048v-12.40953c0,-0.82261 0.39333,-1.0369 1.03714,-1.0369h3.43309c0.64381,0 1.03715,0.21429 1.03715,1.0369" id="Path-3"/><path d="M258.58807,59h-0.09733c-2.23887,0 -4.93242,0.76286 -7.02051,2.24238c-0.60141,0.42619 -0.79377,1.19572 -0.45669,1.82881l1.82349,3.42595c0.258,0.48476 0.99069,0.49429 1.26289,0.01643c0.62194,-1.08524 2.67352,-2.03738 4.39082,-2.03738h0.09733c2.27436,0 4.50665,1.74333 4.50665,3.51952v5.97762c0,1.77619 -2.23229,3.51953 -4.50665,3.51953c-1.40659,0 -3.19181,-0.79453 -3.67335,-1.63476l-7.0717,-12.34262c-1.59591,-2.78524 -4.67899,-4.51548 -8.04593,-4.51548h-1.83135c-5.50596,0 -10.33574,4.20357 -10.33574,8.99571v5.97762c0,4.79215 4.82978,8.99572 10.33574,8.99572c2.50753,0 5.58529,-0.95738 7.74358,-2.80691c0.51828,-0.44381 0.63537,-1.16881 0.30792,-1.75119l-2.03156,-3.61381c-0.26662,-0.47428 -0.98943,-0.47476 -1.25706,-0.00095l-0.37179,0.65905c-0.6222,1.08547 -2.67404,2.03762 -4.39109,2.03762c-2.27436,0 -4.50665,-1.74334 -4.50665,-3.51953v-5.97762c0,-1.77619 2.23229,-3.51952 4.50665,-3.51952h1.62303c1.3455,0 2.58254,0.69429 3.22019,1.80738l6.97312,12.17c1.69855,2.96453 5.71555,4.51548 8.80599,4.51548c5.50595,0 10.33574,-4.20357 10.33574,-8.99572v-5.97762c0,-4.79214 -4.82979,-8.99571 -10.33574,-8.99571" id="Path-4"/><path d="M247.66143,63.52c-0.15191,0.22071 -0.29357,0.44881 -0.42143,0.68619z" id="Path-5"/><path d="M247.6631,63.51821c0.00404,-0.00571 0.00809,-0.01142 0.0119,-0.01714l-0.00071,-0.00119z" id="Path-6"/><clipPath id="clip-C0841E45-C0D9-FD04-3752-A00F73E1883D"><use xlink:href="#Path-0" /></clipPath></defs><desc>Generated with Avocode.</desc><g transform="matrix(1,0,0,1,-182,-59)"><g><title>Logotype</title><g><title>Group 3</title><g><title>Clip 2</title></g><g clip-path="url(#clip-C0841E45-C0D9-FD04-3752-A00F73E1883D)"><title>Fill 1</title><use xlink:href="#Path-1" fill="#ffffff" fill-opacity="1"/></g></g><g><title>Fill 4</title><use xlink:href="#Path-2" fill="#ffffff" fill-opacity="1"/></g><g><title>Fill 6</title><use xlink:href="#Path-3" fill="#ffffff" fill-opacity="1"/></g><g><title>Fill 8</title><use xlink:href="#Path-4" fill="#ffffff" fill-opacity="1"/></g><g><title>Fill 10</title><use xlink:href="#Path-5" fill="#ffffff" fill-opacity="1"/></g><g><title>Fill 12</title><use xlink:href="#Path-6" fill="#ffffff" fill-opacity="1"/></g></g></g></svg>