<svg id="SVGDoc" width="42" height="24" xmlns="http://www.w3.org/2000/svg" version="1.1" xmlns:xlink="http://www.w3.org/1999/xlink" xmlns:avocode="https://avocode.com/" viewBox="0 0 42 24"><defs><path d="M45.95807,16h-0.09733c-2.23887,0 -4.93242,0.76286 -7.02051,2.24238c-0.60141,0.42619 -0.79377,1.19572 -0.45669,1.82881l1.82349,3.42595c0.258,0.48476 0.99069,0.49429 1.26289,0.01643c0.62194,-1.08524 2.67352,-2.03738 4.39082,-2.03738h0.09733c2.27436,0 4.50665,1.74333 4.50665,3.51952v5.97762c0,1.77619 -2.23229,3.51953 -4.50665,3.51953c-1.40659,0 -3.19181,-0.79453 -3.67335,-1.63476l-7.0717,-12.34262c-1.59591,-2.78524 -4.67899,-4.51548 -8.04593,-4.51548h-1.83135c-5.50596,0 -10.33574,4.20357 -10.33574,8.99571v5.97762c0,4.79215 4.82978,8.99572 10.33574,8.99572c2.50753,0 5.58529,-0.95738 7.74358,-2.80691c0.51828,-0.44381 0.63537,-1.16881 0.30792,-1.75119l-2.03156,-3.61381c-0.26662,-0.47428 -0.98943,-0.47476 -1.25706,-0.00095l-0.37179,0.65905c-0.6222,1.08547 -2.67404,2.03762 -4.39109,2.03762c-2.27436,0 -4.50665,-1.74334 -4.50665,-3.51953v-5.97762c0,-1.77619 2.23229,-3.51952 4.50665,-3.51952h1.62303c1.3455,0 2.58254,0.69429 3.22019,1.80738l6.97312,12.17c1.69855,2.96453 5.71555,4.51548 8.80599,4.51548c5.50595,0 10.33574,-4.20357 10.33574,-8.99572v-5.97762c0,-4.79214 -4.82979,-8.99571 -10.33574,-8.99571" id="Path-0"/></defs><desc>Generated with Avocode.</desc><g transform="matrix(1,0,0,1,-15,-16)"><g><title>Fill 8</title><use xlink:href="#Path-0" fill="#ffffff" fill-opacity="1"/></g></g></svg>