<svg id="SVGDoc" width="375" height="651" xmlns="http://www.w3.org/2000/svg" version="1.1" xmlns:xlink="http://www.w3.org/1999/xlink" xmlns:avocode="https://avocode.com/" viewBox="0 0 375 651"><defs><path d="M0,651v-651h375v651z" id="Path-0"/><path d="M109,651.5c0,-43.90664 35.59336,-79.5 79.5,-79.5c43.90664,0 79.5,35.59336 79.5,79.5c0,43.90664 -35.59336,79.5 -79.5,79.5c-43.90664,0 -79.5,-35.59336 -79.5,-79.5z" id="Path-1"/><path d="M-8,652.5c0,-109.07624 88.42376,-197.5 197.5,-197.5c109.07624,0 197.5,88.42376 197.5,197.5c0,109.07624 -88.42376,197.5 -197.5,197.5c-109.07624,0 -197.5,-88.42376 -197.5,-197.5z" id="Path-2"/><path d="M-133,652.5c0,-178.11183 144.38817,-322.5 322.5,-322.5c178.11183,0 322.5,144.38817 322.5,322.5c0,178.11183 -144.38817,322.5 -322.5,322.5c-178.11183,0 -322.5,-144.38817 -322.5,-322.5z" id="Path-3"/><linearGradient id="LinearGradient1198" gradientUnits="userSpaceOnUse" x1="174.02140299479166" y1="0" x2="407.29261215678775" y2="369.7889356107649"><stop stop-opacity="1" stop-color="#3f306f" offset="0"></stop><stop stop-opacity="1" stop-color="#403f97" offset="1"></stop></linearGradient></defs><desc>Generated with Avocode.</desc><g transform="matrix(1,0,0,1,0,0)"><g><title>Background</title><use xlink:href="#Path-0" fill="url(#LinearGradient1198)"/></g><g opacity="0.25"><title>Oval</title><use xlink:href="#Path-1" fill-opacity="0" fill="#ffffff" stroke-linejoin="miter" stroke-linecap="butt" stroke-opacity="1" stroke="#4aa7ca" stroke-miterlimit="50" stroke-width="2"/></g><g opacity="0.15"><title>Oval</title><use xlink:href="#Path-2" fill-opacity="0" fill="#ffffff" stroke-linejoin="miter" stroke-linecap="butt" stroke-opacity="1" stroke="#4aa7ca" stroke-miterlimit="50" stroke-width="2"/></g><g opacity="0.1"><title>Oval</title><use xlink:href="#Path-3" fill-opacity="0" fill="#ffffff" stroke-linejoin="miter" stroke-linecap="butt" stroke-opacity="1" stroke="#4aa7ca" stroke-miterlimit="50" stroke-width="2"/></g></g></svg>