<svg id="SVGDoc" width="24" height="19" xmlns="http://www.w3.org/2000/svg" version="1.1" xmlns:xlink="http://www.w3.org/1999/xlink" xmlns:avocode="https://avocode.com/" viewBox="0 0 24 19"><defs><path d="M720.11243,2586c1.17159,0 1.88757,0.38 1.88757,1.83667v5.7c0,1.39333 -0.06509,1.96333 -0.45562,2.97666l-3.71006,7.34667c-0.45562,0.76 -0.91124,1.14 -1.7574,1.14h-4.16568c-0.84615,0 -1.10651,-0.95 -0.65088,-1.77333l3.57988,-6.52334h-1.95267c-1.17159,0 -1.88757,-0.38 -1.88757,-1.83666v-7.03c0,-1.45667 0.71598,-1.83667 1.88757,-1.83667zM733.11243,2586c1.17159,0 1.88757,0.38 1.88757,1.83667v5.7c0,1.39333 -0.06509,1.96333 -0.45562,2.97666l-3.71006,7.34667c-0.45562,0.76 -0.91124,1.14 -1.7574,1.14h-4.16568c-0.84615,0 -1.10651,-0.95 -0.5858,-1.77333l3.5148,-6.52334h-1.95267c-1.17159,0 -1.88757,-0.38 -1.88757,-1.83666v-7.03c0,-1.45667 0.71598,-1.83667 1.88757,-1.83667z" id="Path-0"/></defs><desc>Generated with Avocode.</desc><g transform="matrix(1,0,0,1,-711,-2586)"><g transform="rotate(-180 723 2595.5)"><title>„</title><use xlink:href="#Path-0" fill="#3f3379" fill-opacity="0.27"/></g></g></svg>