<svg id="SVGDoc" width="156" height="20" xmlns="http://www.w3.org/2000/svg" version="1.1" xmlns:xlink="http://www.w3.org/1999/xlink" xmlns:avocode="https://avocode.com/" viewBox="0 0 156 20"><defs><path d="M781.47573,3729.30244c0,0.78837 -0.51818,0.9521 -1.64726,0.9521h-7.85115l-0.38331,-0.37505v-2.49293l0.34345,-0.31628h7.89101c1.12907,0 1.64726,0.16187 1.64726,0.95397zM781.46572,3725h-12.98464l-0.48108,0.36246v11.63754h3.59447v-4.36402l0.3431,-0.30975h9.52862c2.40588,0 3.53381,-0.65215 3.53381,-2.32545v-2.67206c-0.00046,-1.6761 -1.12793,-2.32872 -3.53428,-2.32872z" id="Path-0"/><path d="M791.80749,3726.51426l3.17101,4.8843l-0.17564,0.4731h-7.01276l-1.7901,2.31514h10.43868l0.72344,0.46313l1.62063,2.35007h4.21725l-9.24386,-13" id="Path-1"/><path d="M832.86226,3734.62842v-3.24139l0.39092,-0.32301h7.27146v-2.06402h-11.52464v8h17v-2.05419h-12.7297" id="Path-2"/><path d="M829,3727v-2h17v2z" id="Path-3"/><path d="M811.00843,3727.14269h12.99157c-0.20024,-1.67731 -1.22531,-2.14269 -3.82564,-2.14269h-9.30417c-2.93422,0 -3.87019,0.58149 -3.87019,2.83609v6.32549c0,2.25693 0.93597,2.83842 3.87019,2.83842h9.30417c2.63845,0 3.64882,-0.50315 3.71771,-2.24295h-12.88364l-0.38211,-0.36512v-7.00489" id="Path-4"/><path d="M758.96105,3729.67568h-9.79466l-0.28843,-0.31103v-2.05269l0.287,-0.2173h13.20392l0.18039,-0.43227c-0.44978,-1.1336 -1.61444,-1.66239 -3.77717,-1.66239h-9.17212c-3.03897,0 -4.01039,0.58149 -4.01039,2.83609v1.32619c0,2.2574 0.97142,2.83795 4.01039,2.83795h9.77277l0.30699,0.26393v2.14596l-0.25035,0.33481h-11.17874v-0.01026h-2.92807c0,0 -0.33507,0.16461 -0.32222,0.24155c0.24988,1.57706 1.34648,2.02378 3.97184,2.02378h9.98885c3.03849,0 4.03895,-0.58149 4.03895,-2.83842v-1.65214c0,-2.2532 -1.00046,-2.83376 -4.03895,-2.83376" id="Path-5"/><path d="M856.86101,3724h-5.55925l-0.30176,0.56572l6.17384,4.43428c1.1695,-0.6672 2.442,-1.34342 3.82616,-2.01062" id="Path-6"/><path d="M861,3732.70877l5.28869,4.29123h5.48428l0.22703,-0.56837l-7.89715,-6.43163c-1.04882,0.85647 -2.08498,1.76096 -3.10285,2.70877" id="Path-7"/><path d="M855.35355,3737h-4.93647l-0.41708,-0.67784c3.35648,-3.36274 18.36854,-17.77778 51,-19.32216c0,0 -27.38938,0.95868 -45.64645,20" id="Path-8"/></defs><desc>Generated with Avocode.</desc><g transform="matrix(1,0,0,1,-745,-3717)"><g><title>SpaceX-Logo</title><g><title>Shape</title><use xlink:href="#Path-0" fill="#493d83" fill-opacity="1"/></g><g><title>Path</title><use xlink:href="#Path-1" fill="#493d83" fill-opacity="1"/></g><g><title>Path</title><use xlink:href="#Path-2" fill="#493d83" fill-opacity="1"/></g><g><title>Rectangle</title><use xlink:href="#Path-3" fill="#493d83" fill-opacity="1"/></g><g><title>Path</title><use xlink:href="#Path-4" fill="#493d83" fill-opacity="1"/></g><g><title>Path</title><use xlink:href="#Path-5" fill="#493d83" fill-opacity="1"/></g><g><title>Path</title><use xlink:href="#Path-6" fill="#493d83" fill-opacity="1"/></g><g><title>Path</title><use xlink:href="#Path-7" fill="#493d83" fill-opacity="1"/></g><g><title>Path</title><use xlink:href="#Path-8" fill="#493d83" fill-opacity="1"/></g></g></g></svg>