<svg id="SVGDoc" width="1440" height="650" xmlns="http://www.w3.org/2000/svg" version="1.1" xmlns:xlink="http://www.w3.org/1999/xlink" xmlns:avocode="https://avocode.com/" viewBox="0 0 1440 650"><defs><path d="M0,650v-650h1440v650z" id="Path-0"/><path d="M642,650.5c0,-43.35435 35.14565,-78.5 78.5,-78.5c43.35435,0 78.5,35.14565 78.5,78.5c0,43.35435 -35.14565,78.5 -78.5,78.5c-43.35435,0 -78.5,-35.14565 -78.5,-78.5z" id="Path-1"/><path d="M524,650.5c0,-108.52395 87.97605,-196.5 196.5,-196.5c108.52395,0 196.5,87.97605 196.5,196.5c0,108.52395 -87.97605,196.5 -196.5,196.5c-108.52395,0 -196.5,-87.97605 -196.5,-196.5z" id="Path-2"/><path d="M397,650.5c0,-178.66412 144.83588,-323.5 323.5,-323.5c178.66412,0 323.5,144.83588 323.5,323.5c0,178.66412 -144.83588,323.5 -323.5,323.5c-178.66412,0 -323.5,-144.83588 -323.5,-323.5z" id="Path-3"/><path d="M251,650.5c0,-259.29769 210.20231,-469.5 469.5,-469.5c259.29769,0 469.5,210.20231 469.5,469.5c0,259.29769 -210.20231,469.5 -469.5,469.5c-259.29769,0 -469.5,-210.20231 -469.5,-469.5z" id="Path-4"/><linearGradient id="LinearGradient1792" gradientUnits="userSpaceOnUse" x1="668.2421875" y1="0" x2="1564.003630682065" y2="369.2209034516086"><stop stop-opacity="1" stop-color="#3f306f" offset="0"></stop><stop stop-opacity="1" stop-color="#403f97" offset="1"></stop></linearGradient></defs><desc>Generated with Avocode.</desc><g transform="matrix(1,0,0,1,0,0)"><g><title>Background</title><use xlink:href="#Path-0" fill="url(#LinearGradient1792)"/></g><g opacity="0.4"><title>Oval</title><use xlink:href="#Path-1" fill-opacity="0" fill="#ffffff" stroke-linejoin="miter" stroke-linecap="butt" stroke-opacity="1" stroke="#4aa7ca" stroke-miterlimit="50" stroke-width="2"/></g><g opacity="0.2"><title>Oval</title><use xlink:href="#Path-2" fill-opacity="0" fill="#ffffff" stroke-linejoin="miter" stroke-linecap="butt" stroke-opacity="1" stroke="#4aa7ca" stroke-miterlimit="50" stroke-width="2"/></g><g opacity="0.1"><title>Oval</title><use xlink:href="#Path-3" fill-opacity="0" fill="#ffffff" stroke-linejoin="miter" stroke-linecap="butt" stroke-opacity="1" stroke="#4aa7ca" stroke-miterlimit="50" stroke-width="2"/></g><g opacity="0.05"><title>Oval</title><use xlink:href="#Path-4" fill-opacity="0" fill="#ffffff" stroke-linejoin="miter" stroke-linecap="butt" stroke-opacity="1" stroke="#4aa7ca" stroke-miterlimit="50" stroke-width="2"/></g></g></svg>