<svg id="SVGDoc" width="129" height="17" xmlns="http://www.w3.org/2000/svg" version="1.1" xmlns:xlink="http://www.w3.org/1999/xlink" xmlns:avocode="https://avocode.com/" viewBox="0 0 129 17"><defs><path d="M576.07161,3729.90914c1.73736,0.34541 3.02767,1.88696 3.38997,3.37733h-19.2699c0.36018,-1.49037 1.66956,-3.03192 3.39209,-3.37733zM576.07161,3723.06493c1.73736,0.34967 3.02767,1.88696 3.38997,3.37947h-19.2699c0.36018,-1.49251 1.66956,-3.0298 3.39209,-3.37947zM531.08,3739.92319c0.37503,-1.47633 1.64421,-2.98039 3.38377,-3.36013h5.25682l0.26697,-0.10667v-13.35522h3.28419v13.35522l0.29664,0.10667h5.26318c1.7565,0.45655 2.99814,1.88381 3.36894,3.36013v0.032h-21.12051zM576.07161,3736.57213c1.73736,0.34754 3.02767,1.88909 3.38997,3.37947h-19.2699c0.36018,-1.49038 1.66956,-3.03193 3.39209,-3.37947zM641.20328,3723.06706h3.24793v6.78h11.82434v-6.78h3.24582v10.16893l-18.31809,0.01703zM607.15783,3739.92601h-18.31756v-9.96143h14.99287v-3.49674l-11.75924,-0.01066c-1.84446,-0.51598 -3.40304,-1.76116 -4.18445,-3.40718l0.95082,0.01706h18.21591v10.20875h-14.98227v3.33256h11.53265c1.73434,0.50746 3.19551,1.84005 3.55128,3.31764zM656.5808,3736.56147c1.73524,0.34541 3.02767,1.88696 3.38997,3.37733h-19.27201c0.36018,-1.49037 1.67168,-3.03192 3.39209,-3.37733zM619.64668,3739.93027l-3.26666,-0.00853v-16.85895h14.98087c1.63863,0.69935 2.51625,1.90828 2.85541,3.31977h-14.5781z" id="Path-0"/></defs><desc>Generated with Avocode.</desc><g transform="matrix(1,0,0,1,-531,-3723)"><g><title>Tesla_Motors_Logo</title><g transform="matrix(1,1.2246467991473532e-16,1.2246467991473532e-16,-1,-4.547473508864641e-13,7463)"><title>g10482</title><g><title>path10484</title><use xlink:href="#Path-0" fill="#493d83" fill-opacity="1"/></g></g></g></g></svg>