<svg id="SVGDoc" width="87" height="17" xmlns="http://www.w3.org/2000/svg" version="1.1" xmlns:xlink="http://www.w3.org/1999/xlink" xmlns:avocode="https://avocode.com/" viewBox="0 0 87 17"><defs><path d="M1021.30924,3723.51229c0.4477,-0.38308 0.80786,-0.51229 1.428,-0.51229c0.86714,0 1.54073,0.39484 1.9302,1.13143c0.93126,1.76128 -1.04696,3.69757 -2.8721,2.8112c-1.3838,-0.67203 -1.63533,-2.44698 -0.4861,-3.43034zM1062.30094,3738.62427c-0.06647,-0.24112 -0.0878,-1.18429 -0.06592,-2.91445c0.03187,-2.52007 0.03587,-2.56831 0.27033,-3.25581c0.61757,-1.81091 2.26883,-3.31293 4.18943,-3.8108c0.70604,-0.18303 3.9654,-0.27072 4.67637,-0.12583c0.98732,0.20121 1.62885,0.94544 1.62885,1.8896c0,0.80524 -0.37456,1.42837 -1.07631,1.7906c-0.33035,0.17053 -0.52006,0.18868 -2.40243,0.2299c-1.9518,0.04274 -2.05852,0.05371 -2.37175,0.24394c-0.41346,0.2511 -0.71491,0.63828 -0.83706,1.0751c-0.05732,0.20498 -0.09522,1.21802 -0.09551,2.55314c-0.0005,2.21279 -0.0005,2.21343 -0.22657,2.65652c-0.15266,0.29924 -0.35745,0.53202 -0.63053,0.7167c-0.35512,0.24017 -0.48395,0.2763 -1.05669,0.29632c-0.51258,0.0179 -0.71882,-0.01255 -0.96303,-0.14217c-0.44817,-0.23789 -0.9255,-0.79035 -1.03918,-1.20276zM1056.77719,3732.31514c-0.16376,-0.53169 -0.63313,-0.84643 -1.4915,-1.00018c-0.91306,-0.16355 -2.18965,0.20238 -2.43593,0.69826c-0.10844,0.21834 -0.21203,0.46692 -0.21203,0.46692c0,0 0.7598,0.02459 2.10749,0.02459h2.09037zM1052.95012,3739.8548c-1.27045,-0.33504 -2.20659,-0.88576 -3.12291,-1.83717c-1.11303,-1.15564 -1.61491,-2.4294 -1.61169,-4.09037c0.00197,-1.01461 0.17985,-1.80777 0.59366,-2.64697c0.4371,-0.88645 0.91646,-1.4645 1.62261,-1.95668c2.05613,-1.43312 5.71082,-1.52267 8.01288,-0.19635c0.82404,0.47478 1.68093,1.37329 2.09846,2.2004c0.8443,1.67251 0.75932,3.18739 -0.20643,3.67988c-0.33413,0.1704 -0.4899,0.17819 -4.01918,0.20114l-3.67157,0.02387v0.22269c0,0.34716 0.56587,0.81765 1.1887,0.98833c0.42455,0.11636 0.93685,0.14186 2.8579,0.14224c1.29982,0 2.48043,0.03841 2.65501,0.08577c1.49591,0.40587 1.79579,2.34108 0.47951,3.09454c-0.4264,0.2815 -0.68373,0.21075 -3.40856,0.20888c-2.25914,-0.00415 -3.14486,-0.03485 -3.4684,-0.12018zM1042.09325,3739.82627c-2.18797,-0.58516 -3.9843,-2.38229 -4.5509,-4.55294c-0.1393,-0.53361 -0.15468,-1.07222 -0.15529,-5.43462c0.03305,-4.52817 -0.19675,-4.35111 0.23697,-5.28304c0.49938,-0.92605 1.53001,-1.33409 2.62131,-1.03784c0.45494,0.12351 1.22037,0.87192 1.34668,1.31673c0.05258,0.18515 0.09442,1.05439 0.09469,1.96709l0.00052,1.63534h1.7693c2.0265,0 2.56458,0.07339 3.05284,0.41639c1.05718,0.74265 1.08126,2.40679 0.04544,3.14044c-0.51678,0.36603 -1.00549,0.43594 -3.04726,0.43594h-1.82032v0.76944c0,1.01341 0.11898,1.43949 0.52916,1.89513c0.55927,0.62123 0.76673,0.68044 2.56244,0.73142c1.56303,0.04437 1.5733,0.04592 1.99836,0.30251c0.48676,0.29382 0.93702,0.94327 1.0244,1.47759c0.12647,0.77334 -0.2879,1.64418 -1.00253,2.10697l-0.36329,0.23526l-1.87468,0.01841c-1.60035,0.01572 -1.96148,-0.00481 -2.46783,-0.14022zM1026.69871,3735.98664c-0.38352,-0.99756 -0.41385,-1.50577 -0.38465,-6.4453c0.02693,-4.55604 0.03036,-4.63535 0.21508,-4.96974c0.92115,-1.66752 3.44243,-1.45643 3.98927,0.334c0.09226,0.30207 0.12796,0.85088 0.12796,1.96731v1.54838l2.06549,0.03074c1.90987,0.02843 2.09172,0.04444 2.41338,0.21244c1.51162,0.78949 1.51849,2.74828 0.0124,3.5344c-0.33768,0.17627 -0.4902,0.18982 -2.43289,0.21627l-2.07263,0.02821l0.02887,0.99138c0.03368,1.15693 0.16859,1.50367 0.75621,1.94371c0.51462,0.38537 0.83863,0.44828 2.31655,0.44975c1.18586,0.00109 1.34452,0.01949 1.7442,0.2013c1.67037,0.75978 1.66861,3.06036 -0.00291,3.80208c-0.51666,0.22925 -3.54236,0.22288 -4.44932,-0.00938c-1.93325,-0.49509 -3.61631,-1.98697 -4.32701,-3.83555zM1021.89928,3739.86013c-0.39619,-0.16838 -0.89097,-0.62305 -1.10722,-1.01747c-0.18901,-0.34475 -0.19055,-0.38282 -0.19055,-4.7189c0,-4.17257 0.00778,-4.38663 0.17065,-4.70723c0.67726,-1.333 2.42594,-1.633 3.48629,-0.5981c0.65947,0.64362 0.65763,0.62771 0.62937,5.44248c-0.02439,4.15566 -0.02835,4.24051 -0.21291,4.57373c-0.24287,0.43847 -0.68396,0.84819 -1.09194,1.01427c-0.39452,0.1606 -1.31772,0.16676 -1.68369,0.01124zM1003.83684,3739.84775c-1.33793,-0.3164 -2.71875,-1.30851 -3.56272,-2.5598c-0.77775,-1.15311 -0.92936,-1.96446 -0.93336,-4.99495c-0.00346,-2.61347 0.05033,-2.94261 0.56546,-3.46028c0.47681,-0.47917 0.78062,-0.60338 1.48208,-0.60594c0.53566,-0.00207 0.67088,0.03111 1.04132,0.25464c0.26361,0.15906 0.52596,0.41501 0.68893,0.6721c0.32627,0.55188 0.26644,0.78337 0.30669,3.05347c0.04258,2.58372 0.0477,2.64485 0.24741,2.95836c0.6746,1.05899 2.06951,1.21504 2.9948,0.33505c0.5342,-0.50806 0.5844,-0.80656 0.5844,-3.47502c0,-2.19419 0.01012,-2.34189 0.18375,-2.67955c0.34783,-0.67647 0.85216,-1.03453 1.59758,-1.13425c0.79767,-0.10671 1.65789,0.3522 2.07002,1.1043c0.18369,0.33521 0.19471,0.47279 0.23617,2.94698c-0.01482,2.05828 0.08439,2.66064 0.28339,2.94888c0.63642,0.93782 1.97419,1.13955 2.80957,0.42369c0.59874,-0.51309 0.59841,-0.51134 0.64766,-3.37906c0.04228,-2.46155 0.0539,-2.60615 0.23617,-2.94048c0.76505,-1.4033 2.70169,-1.49174 3.54368,-0.16185c0.54465,0.73695 0.30625,2.29644 0.30625,3.3021c0.03953,1.32334 -0.04003,3.02019 -0.27711,3.54317c-0.645,1.77681 -2.08163,3.18807 -3.80997,3.7427c-0.784,0.25159 -2.51164,0.31197 -3.29007,0.11498c-0.75047,-0.18991 -1.39992,-0.48082 -2.01797,-0.90395l-0.51884,-0.35521l-0.51876,0.35515c-0.62734,0.42949 -1.26234,0.72038 -1.95637,0.89621c-0.6469,0.1639 -2.24436,0.16311 -2.94016,-0.00145zM990.68841,3739.81124c-1.69457,-0.44568 -3.24962,-1.70244 -4.04519,-3.26924c-0.60971,-1.20074 -0.60894,-1.19235 -0.61038,-6.71098c-0.07224,-4.77375 -0.04462,-4.92778 0.28136,-5.38819c0.69235,-1.12715 2.21912,-1.36785 3.22013,-0.50767c0.70281,0.60394 0.75867,0.80902 0.75867,2.78508v1.71368h2.95265c1.80608,0 3.12462,0.036 3.39551,0.09271c1.54088,0.32261 2.12583,2.12149 1.05598,3.24744c-0.12608,0.13269 -0.38578,0.32371 -0.57711,0.4245c-0.33579,0.17689 -0.4604,0.18416 -3.58745,0.20921l-3.23958,0.02596v0.76423c0,1.11153 0.1181,1.4752 0.6466,1.99113c0.61714,0.60249 0.78189,0.63086 3.67511,0.6331c2.24459,0.00163 2.44647,0.0143 2.80971,0.17479c1.37799,0.60895 1.72129,2.23033 0.70519,3.33061c-0.59393,0.64314 -0.63313,0.64959 -3.92303,0.64592c-2.56784,-0.00285 -2.98518,-0.02212 -3.51818,-0.16229z" id="Path-0"/></defs><desc>Generated with Avocode.</desc><g transform="matrix(1,0,0,1,-986,-3723)"><g><title>Twitter_logo</title><g><title>path4223</title><use xlink:href="#Path-0" fill="#493d83" fill-opacity="1"/></g></g></g></svg>